<svg width="307" height="120" viewBox="0 0 307 120" fill="none" xmlns="http://www.w3.org/2000/svg">
<path opacity="0.05" d="M76.0408 -52.7439C76.3226 -53.7005 77.6774 -53.7004 77.9592 -52.7439L88.4847 -17.0158C88.6833 -16.3417 89.4969 -16.0773 90.0539 -16.506L119.57 -39.2239C120.36 -39.8321 121.456 -39.0357 121.122 -38.0962L108.636 -3.00493C108.401 -2.34282 108.904 -1.65067 109.606 -1.67011L146.838 -2.70041C147.835 -2.72799 148.254 -1.43942 147.431 -0.875828L116.704 20.175C116.124 20.5722 116.124 21.4278 116.704 21.825L147.431 42.8758C148.254 43.4394 147.835 44.728 146.838 44.7004L109.606 43.6701C108.904 43.6507 108.401 44.3428 108.636 45.0049L121.122 80.0963C121.456 81.0358 120.36 81.8321 119.57 81.2239L90.0538 58.506C89.4969 58.0773 88.6833 58.3417 88.4847 59.0158L77.9592 94.7439C77.6774 95.7005 76.3226 95.7005 76.0408 94.7439L65.5153 59.0158C65.3167 58.3417 64.5031 58.0773 63.9461 58.506L34.4305 81.2239C33.6402 81.8321 32.5441 81.0358 32.8784 80.0963L45.3636 45.0049C45.5991 44.3428 45.0962 43.6507 44.3938 43.6701L7.1618 44.7004C6.16499 44.728 5.74631 43.4394 6.56896 42.8758L37.2958 21.825C37.8756 21.4278 37.8756 20.5722 37.2958 20.175L6.56895 -0.875828C5.7463 -1.43942 6.16499 -2.72799 7.1618 -2.70041L44.3938 -1.67011C45.0963 -1.65067 45.5991 -2.34282 45.3636 -3.00493L32.8784 -38.0962C32.5441 -39.0357 33.6402 -39.8321 34.4305 -39.2239L63.9461 -16.506C64.5031 -16.0773 65.3167 -16.3417 65.5153 -17.0158L76.0408 -52.7439Z" fill="white"/>
<path opacity="0.05" d="M239.596 34.25C240.311 34.25 240.971 34.6312 241.328 35.25L278.424 99.5009C278.781 100.12 278.781 100.882 278.424 101.501L241.328 165.752C240.971 166.371 240.311 166.752 239.596 166.752L165.406 166.752C164.691 166.752 164.031 166.371 163.674 165.752L126.578 101.501C126.221 100.882 126.221 100.12 126.578 99.5009L163.674 35.25C164.031 34.6312 164.691 34.25 165.406 34.25L239.596 34.25Z" fill="white"/>
</svg>
