<svg width="498" height="120" viewBox="0 0 498 120" fill="none" xmlns="http://www.w3.org/2000/svg">
<path opacity="0.05" d="M420.041 -52.7439C420.323 -53.7005 421.677 -53.7004 421.959 -52.7439L432.485 -17.0158C432.683 -16.3417 433.497 -16.0773 434.054 -16.506L463.57 -39.2239C464.36 -39.8321 465.456 -39.0357 465.122 -38.0962L452.636 -3.00493C452.401 -2.34282 452.904 -1.65067 453.606 -1.67011L490.838 -2.70041C491.835 -2.72799 492.254 -1.43942 491.431 -0.875828L460.704 20.175C460.124 20.5722 460.124 21.4278 460.704 21.825L491.431 42.8758C492.254 43.4394 491.835 44.728 490.838 44.7004L453.606 43.6701C452.904 43.6507 452.401 44.3428 452.636 45.0049L465.122 80.0963C465.456 81.0358 464.36 81.8321 463.57 81.2239L434.054 58.506C433.497 58.0773 432.683 58.3417 432.485 59.0158L421.959 94.7439C421.677 95.7005 420.323 95.7005 420.041 94.7439L409.515 59.0158C409.317 58.3417 408.503 58.0773 407.946 58.506L378.43 81.2239C377.64 81.8321 376.544 81.0358 376.878 80.0963L389.364 45.0049C389.599 44.3428 389.096 43.6507 388.394 43.6701L351.162 44.7004C350.165 44.728 349.746 43.4394 350.569 42.8758L381.296 21.825C381.876 21.4278 381.876 20.5722 381.296 20.175L350.569 -0.875828C349.746 -1.43942 350.165 -2.72799 351.162 -2.70041L388.394 -1.67011C389.096 -1.65067 389.599 -2.34282 389.364 -3.00493L376.878 -38.0962C376.544 -39.0357 377.64 -39.8321 378.43 -39.2239L407.946 -16.506C408.503 -16.0773 409.317 -16.3417 409.515 -17.0158L420.041 -52.7439Z" fill="white"/>
<path opacity="0.05" d="M46.5962 70.25C47.3108 70.25 47.971 70.6312 48.3283 71.25L85.4236 135.501C85.7809 136.12 85.7809 136.882 85.4236 137.501L48.3283 201.752C47.971 202.371 47.3108 202.752 46.5962 202.752L-27.5944 202.752C-28.3089 202.752 -28.9691 202.371 -29.3264 201.752L-66.4217 137.501C-66.779 136.882 -66.779 136.12 -66.4217 135.501L-29.3264 71.25C-28.9691 70.6312 -28.3089 70.25 -27.5944 70.25L46.5962 70.25Z" fill="white"/>
</svg>
