<svg width="24" height="24" viewBox="0 0 24 24" fill="none" xmlns="http://www.w3.org/2000/svg">
<path d="M12.1145 8.17182C11.4035 8.17182 10.3029 7.36342 9.14387 7.39264C7.61472 7.41212 6.21219 8.27896 5.42327 9.65226C3.83569 12.4086 5.0142 16.4798 6.56283 18.72C7.32253 19.8108 8.21859 21.0381 9.40684 20.9991C10.5464 20.9504 10.9749 20.2589 12.358 20.2589C13.7313 20.2589 14.1209 20.9991 15.3286 20.9699C16.5558 20.9504 17.335 19.8595 18.085 18.7589C18.9518 17.4928 19.3122 16.2656 19.3317 16.1974C19.3024 16.1876 16.9454 15.2818 16.9162 12.5547C16.8967 10.2756 18.7765 9.18475 18.8642 9.13605C17.7928 7.56795 16.1468 7.39264 15.5721 7.35368C14.0722 7.2368 12.8158 8.17182 12.1145 8.17182ZM14.6468 5.87323C15.2799 5.11353 15.6987 4.0519 15.5819 3C14.6761 3.03896 13.5852 3.60387 12.9326 4.36357C12.3482 5.03561 11.8418 6.11673 11.9781 7.14914C12.9813 7.22706 14.0138 6.63293 14.6468 5.87323Z" fill="#0D0D0D"/>
</svg>
