<svg width="194" height="23" viewBox="0 0 194 23" fill="none" xmlns="http://www.w3.org/2000/svg">
<path d="M10.256 3.52C12.3653 3.52 14.0547 4.06133 15.324 5.144C16.612 6.22667 17.256 7.73867 17.256 9.68C17.256 10.912 16.9853 11.9853 16.444 12.9C15.9027 13.796 15.1373 14.496 14.148 15L17.732 22H12.496L9.444 15.84H5.552V22H0.764V3.52H10.256ZM9.752 11.948C10.592 11.948 11.2547 11.7613 11.74 11.388C12.2253 11.0147 12.468 10.4453 12.468 9.68C12.468 8.91467 12.2253 8.34533 11.74 7.972C11.2547 7.59867 10.592 7.412 9.752 7.412H5.552V11.948H9.752ZM24.2947 7.496V22H19.9267V7.496H24.2947ZM19.5067 3.38C19.5067 2.63333 19.7494 2.02667 20.2347 1.56C20.7201 1.09333 21.3454 0.859998 22.1107 0.859998C22.8761 0.859998 23.5014 1.09333 23.9867 1.56C24.4721 2.02667 24.7147 2.63333 24.7147 3.38C24.7147 4.12667 24.4721 4.73333 23.9867 5.2C23.5014 5.66667 22.8761 5.9 22.1107 5.9C21.3454 5.9 20.7201 5.66667 20.2347 5.2C19.7494 4.73333 19.5067 4.12667 19.5067 3.38ZM33.3842 11.136H27.0282V7.496H39.0402V10.548L32.5162 18.36H39.4322V22H26.8602V18.948L33.3842 11.136ZM47.0911 19.228C47.8938 19.228 48.5844 18.9667 49.1631 18.444C49.7418 17.9027 50.0311 17.1187 50.0311 16.092V15.532L47.9871 15.784C47.1658 15.8773 46.5218 16.1013 46.0551 16.456C45.6071 16.792 45.3831 17.24 45.3831 17.8C45.3831 18.248 45.5324 18.6027 45.8311 18.864C46.1298 19.1067 46.5498 19.228 47.0911 19.228ZM41.0991 18.08C41.0991 15.168 43.1524 13.516 47.2591 13.124L49.9751 12.844C49.7511 11.5 48.7151 10.828 46.8671 10.828C45.4858 10.828 44.1324 11.2013 42.8071 11.948L41.7151 8.756C42.5364 8.252 43.4698 7.85067 44.5151 7.552C45.5791 7.25333 46.7084 7.104 47.9031 7.104C52.1964 7.104 54.3431 9.148 54.3431 13.236V17.912C54.3431 18.7333 54.6138 19.144 55.1551 19.144C55.3791 19.144 55.6124 19.0973 55.8551 19.004L56.6391 21.216C55.8551 21.944 54.8378 22.308 53.5871 22.308C52.9151 22.308 52.2991 22.1773 51.7391 21.916C51.1791 21.636 50.7404 21.1787 50.4231 20.544C49.9191 21.0853 49.2844 21.524 48.5191 21.86C47.7538 22.196 46.8671 22.364 45.8591 22.364C44.3658 22.364 43.1991 21.9907 42.3591 21.244C41.5191 20.4787 41.0991 19.424 41.0991 18.08ZM62.632 3.52L70.696 14.356V3.52H75.344V22H71.144L63.08 11.164V22H58.432V3.52H62.632ZM83.2811 17.492C83.9531 18.164 84.8304 18.5 85.9131 18.5C86.9958 18.5 87.8638 18.164 88.5171 17.492C89.1891 16.82 89.5251 15.9053 89.5251 14.748C89.5251 13.5907 89.1891 12.676 88.5171 12.004C87.8638 11.332 86.9958 10.996 85.9131 10.996C84.8304 10.996 83.9531 11.332 83.2811 12.004C82.6278 12.676 82.3011 13.5907 82.3011 14.748C82.3011 15.9053 82.6278 16.82 83.2811 17.492ZM78.9411 18.78C78.2691 17.604 77.9331 16.26 77.9331 14.748C77.9331 13.236 78.2691 11.9013 78.9411 10.744C79.6131 9.568 80.5558 8.66267 81.7691 8.028C82.9824 7.39333 84.3638 7.076 85.9131 7.076C87.4624 7.076 88.8438 7.39333 90.0571 8.028C91.2704 8.66267 92.2131 9.568 92.8851 10.744C93.5571 11.9013 93.8931 13.236 93.8931 14.748C93.8931 16.26 93.5571 17.604 92.8851 18.78C92.2131 19.9373 91.2704 20.8333 90.0571 21.468C88.8438 22.1027 87.4624 22.42 85.9131 22.42C84.3638 22.42 82.9824 22.1027 81.7691 21.468C80.5558 20.8333 79.6131 19.9373 78.9411 18.78ZM98.7581 7.496L102.286 17.464L105.786 7.496H110.35L104.722 22H99.8221L94.1941 7.496H98.7581ZM117.146 19.228C117.948 19.228 118.639 18.9667 119.218 18.444C119.796 17.9027 120.086 17.1187 120.086 16.092V15.532L118.042 15.784C117.22 15.8773 116.576 16.1013 116.11 16.456C115.662 16.792 115.438 17.24 115.438 17.8C115.438 18.248 115.587 18.6027 115.886 18.864C116.184 19.1067 116.604 19.228 117.146 19.228ZM111.154 18.08C111.154 15.168 113.207 13.516 117.314 13.124L120.03 12.844C119.806 11.5 118.77 10.828 116.922 10.828C115.54 10.828 114.187 11.2013 112.862 11.948L111.77 8.756C112.591 8.252 113.524 7.85067 114.57 7.552C115.634 7.25333 116.763 7.104 117.958 7.104C122.251 7.104 124.398 9.148 124.398 13.236V17.912C124.398 18.7333 124.668 19.144 125.21 19.144C125.434 19.144 125.667 19.0973 125.91 19.004L126.694 21.216C125.91 21.944 124.892 22.308 123.642 22.308C122.97 22.308 122.354 22.1773 121.794 21.916C121.234 21.636 120.795 21.1787 120.478 20.544C119.974 21.0853 119.339 21.524 118.574 21.86C117.808 22.196 116.922 22.364 115.914 22.364C114.42 22.364 113.254 21.9907 112.414 21.244C111.574 20.4787 111.154 19.424 111.154 18.08Z" fill="url(#paint0_linear_1178_2825)"/>
<path d="M139.728 3.52V10.38H142.136C142.864 10.38 143.424 10.2307 143.816 9.932C144.226 9.61467 144.581 9.092 144.88 8.364L146.812 3.52H151.628L149.08 9.988C148.557 11.3507 147.941 12.3867 147.232 13.096L152.188 22H146.896L142.892 14.72H142.612H139.728V22H134.94V3.52H139.728ZM158.443 7.496V22H154.075V7.496H158.443ZM153.655 3.38C153.655 2.63333 153.898 2.02667 154.383 1.56C154.868 1.09333 155.494 0.859998 156.259 0.859998C157.024 0.859998 157.65 1.09333 158.135 1.56C158.62 2.02667 158.863 2.63333 158.863 3.38C158.863 4.12667 158.62 4.73333 158.135 5.2C157.65 5.66667 157.024 5.9 156.259 5.9C155.494 5.9 154.868 5.66667 154.383 5.2C153.898 4.73333 153.655 4.12667 153.655 3.38ZM171.509 14.272C171.509 13.3573 171.294 12.5827 170.865 11.948C170.454 11.3133 169.763 10.996 168.793 10.996C167.822 10.996 167.094 11.332 166.609 12.004C166.123 12.676 165.881 13.6 165.881 14.776V22H161.513V7.496H164.453L165.377 8.812C166.627 7.65467 168.139 7.076 169.913 7.076C171.761 7.076 173.217 7.64533 174.281 8.784C175.345 9.92267 175.877 11.6027 175.877 13.824V22H171.509V14.272ZM183.387 17.492C184.059 18.164 184.936 18.5 186.019 18.5C187.101 18.5 187.969 18.164 188.623 17.492C189.295 16.82 189.631 15.9053 189.631 14.748C189.631 13.5907 189.295 12.676 188.623 12.004C187.969 11.332 187.101 10.996 186.019 10.996C184.936 10.996 184.059 11.332 183.387 12.004C182.733 12.676 182.407 13.5907 182.407 14.748C182.407 15.9053 182.733 16.82 183.387 17.492ZM179.047 18.78C178.375 17.604 178.039 16.26 178.039 14.748C178.039 13.236 178.375 11.9013 179.047 10.744C179.719 9.568 180.661 8.66267 181.875 8.028C183.088 7.39333 184.469 7.076 186.019 7.076C187.568 7.076 188.949 7.39333 190.163 8.028C191.376 8.66267 192.319 9.568 192.991 10.744C193.663 11.9013 193.999 13.236 193.999 14.748C193.999 16.26 193.663 17.604 192.991 18.78C192.319 19.9373 191.376 20.8333 190.163 21.468C188.949 22.1027 187.568 22.42 186.019 22.42C184.469 22.42 183.088 22.1027 181.875 21.468C180.661 20.8333 179.719 19.9373 179.047 18.78Z" fill="white"/>
<defs>
<linearGradient id="paint0_linear_1178_2825" x1="-1" y1="-3" x2="137.6" y2="92.2894" gradientUnits="userSpaceOnUse">
<stop stop-color="#D13030"/>
<stop offset="1" stop-color="#F16F6D"/>
</linearGradient>
</defs>
</svg>
