<svg width="14" height="14" viewBox="0 0 14 14" fill="none" xmlns="http://www.w3.org/2000/svg">
<path d="M11.468 14.0004C12.4265 14.0004 13.2035 13.2233 13.2035 12.2648C13.2035 11.3063 12.4265 10.5293 11.468 10.5293C10.5094 10.5293 9.73242 11.3063 9.73242 12.2648C9.73242 13.2233 10.5094 14.0004 11.468 14.0004Z" fill="#EF225D"/>
<path d="M7.7194 7.01157C7.18717 7.19669 6.6318 7.24298 6.14585 7.15041V11.686L10.8202 8.5157C12.2318 7.75207 13.2037 6.24793 13.2037 4.53554C13.2037 2.03636 11.1673 0 8.6913 0L3.0913 0.0231406C2.14254 0.0231406 1.37891 0.809918 1.37891 1.75868V1.78182V12.9124C1.37891 13.4909 1.86486 13.9769 2.44337 13.9769C2.67477 13.9769 2.90618 13.9074 3.0913 13.7686L4.59544 12.7504V5.62314C4.54915 4.72066 5.31279 3.7719 6.49296 3.37851C7.8351 2.9157 9.22353 3.33223 9.57064 4.35041C9.87147 5.34545 9.06155 6.52562 7.7194 7.01157Z" fill="#EF225D"/>
</svg>
