<svg width="32" height="32" viewBox="0 0 32 32" fill="none" xmlns="http://www.w3.org/2000/svg">
<path d="M17.6004 24H14.4004" stroke="white" stroke-width="1.5" stroke-linecap="round" stroke-linejoin="round"/>
<path d="M16 9V9C13.239 9 11 11.239 11 14V14V14.032V16.504C11 16.828 10.817 17.123 10.528 17.268L10.025 17.519C9.397 17.834 9 18.476 9 19.178V19.178C9 20.202 9.83 21.032 10.854 21.032H21.146C22.17 21.032 23 20.202 23 19.178V19.178C23 18.476 22.603 17.834 21.975 17.52L21.472 17.269C21.183 17.123 21 16.828 21 16.504V14.032V14V14" stroke="white" stroke-width="1.5" stroke-linecap="round" stroke-linejoin="round"/>
<path d="M17.139 9.14204C16.772 9.05604 16.394 9.00004 16 9.00004" stroke="white" stroke-width="1.5" stroke-linecap="round" stroke-linejoin="round"/>
<path d="M20.8577 12.8611C20.9437 13.2281 20.9997 13.6061 20.9997 14.0001" stroke="white" stroke-width="1.5" stroke-linecap="round" stroke-linejoin="round"/>
<path fill-rule="evenodd" clip-rule="evenodd" d="M22.1213 7.87868C23.2929 9.05025 23.2929 10.9497 22.1213 12.1213C20.9497 13.2929 19.0502 13.2929 17.8787 12.1213C16.7071 10.9497 16.7071 9.05025 17.8787 7.87868C19.0502 6.70711 20.9497 6.70711 22.1213 7.87868Z" fill="white"/>
<path d="M22.1213 7.87868C23.2929 9.05025 23.2929 10.9497 22.1213 12.1213C20.9497 13.2929 19.0502 13.2929 17.8787 12.1213C16.7071 10.9497 16.7071 9.05025 17.8787 7.87868C19.0502 6.70711 20.9497 6.70711 22.1213 7.87868" stroke="#0D0D0D" stroke-width="1.5" stroke-linecap="round" stroke-linejoin="round"/>
</svg>
