<svg width="40" height="40" viewBox="0 0 40 40" fill="none" xmlns="http://www.w3.org/2000/svg">
<path d="M0 20C0 8.95431 8.95431 0 20 0C31.0457 0 40 8.95431 40 20C40 31.0457 31.0457 40 20 40C8.95431 40 0 31.0457 0 20Z" fill="#222124"/>
<path d="M0.5 20C0.5 9.23045 9.23045 0.5 20 0.5C30.7696 0.5 39.5 9.23045 39.5 20C39.5 30.7696 30.7696 39.5 20 39.5C9.23045 39.5 0.5 30.7696 0.5 20Z" stroke="white" stroke-opacity="0.1"/>
<path d="M24.0843 12.9172C24.3894 12.4462 24.9742 12 25.5845 12C26.9321 12 28 13.0411 28 14.5036V25.2619C28 25.8095 27.5446 26.2534 26.9829 26.2534H25.6608C25.0991 26.2534 24.6437 25.8095 24.6437 25.2619V19.8084H18.2839C18.3534 23.6721 19.1582 25.3458 19.5096 26.0767C19.6897 26.4511 19.7507 26.578 19.533 26.6252C16.8632 25.7576 15.541 21.9154 15.541 18.5442C15.541 14.9994 16.5072 12.6941 19.0245 12.347C18.4062 14.4901 18.3035 14.9206 18.2892 17.5774L24.6437 17.5774V13.5865C24.6437 12.7932 24.0843 12.9172 24.0843 12.9172Z" fill="#BEA645"/>
<path fill-rule="evenodd" clip-rule="evenodd" d="M12.7089 21.3645C12.4931 21.4534 12.2128 21.9472 12.086 22.4105C11.4338 24.7934 14.5817 28.499 18.5131 27.9442C18.8582 27.8955 19.3299 27.7055 19.3299 27.3942C19.3299 27.2482 19.2485 27.2341 19.0836 27.2057C18.9195 27.1774 18.6727 27.1349 18.3411 26.934C16.4175 26.1005 14.7367 23.0872 14.4985 18.6185C14.4985 17.1064 14.6257 15.8918 15.1596 14.9994C12.4208 16.9433 13.0584 20.5611 14.1677 23.4658C14.82 25.174 16.0862 26.422 16.5904 26.7406C17.194 27.1222 17.3049 27.3959 16.3251 26.9504C15.106 26.3962 14.0207 24.7757 13.5103 23.6001C13.1445 22.7577 13.035 22.4895 12.7089 21.3645Z" fill="#BEA645"/>
</svg>
