<svg width="40" height="40" viewBox="0 0 40 40" fill="none" xmlns="http://www.w3.org/2000/svg">
<path d="M0 20C0 8.95431 8.95431 0 20 0C31.0457 0 40 8.95431 40 20C40 31.0457 31.0457 40 20 40C8.95431 40 0 31.0457 0 20Z" fill="#222124"/>
<path d="M0.5 20C0.5 9.23045 9.23045 0.5 20 0.5C30.7696 0.5 39.5 9.23045 39.5 20C39.5 30.7696 30.7696 39.5 20 39.5C9.23045 39.5 0.5 30.7696 0.5 20Z" stroke="white" stroke-opacity="0.1"/>
<g clip-path="url(#clip0_1430_9142)">
<path fill-rule="evenodd" clip-rule="evenodd" d="M26.0533 20.4752C26.0533 22.6802 25.5512 24.3235 24.548 25.3942C23.5432 26.4665 21.9944 27 19.9046 27C17.9519 27 16.4717 26.4666 15.4604 25.3942C14.4506 24.3234 13.9453 22.7069 13.9453 20.5506C13.9453 18.1362 13.9453 15.722 13.9453 13.3076C13.9453 13.1384 14.0832 13 14.2518 13H17.7923C17.9609 13 18.0988 13.1384 18.0988 13.3076C18.0988 15.7743 18.0988 18.2411 18.0988 20.7079C18.0988 21.5894 18.2614 22.2684 18.5919 22.7463C18.9209 23.222 19.3919 23.4607 20.0059 23.4607C20.623 23.4607 21.0933 23.2377 21.4164 22.7889C21.7396 22.34 21.8997 21.6779 21.8997 20.8029V19.4171H26.0533V20.4752Z" fill="white"/>
<path fill-rule="evenodd" clip-rule="evenodd" d="M25.7329 18.6085H22.2214H21.9004V18.2863V17.342V13.3222C21.9004 13.145 22.0448 13 22.2214 13H22.795C22.7962 14.8047 24.2544 16.2674 26.053 16.2674L26.0539 16.2674V17.342V18.2863V18.6085H25.7329H25.7329Z" fill="white"/>
<path fill-rule="evenodd" clip-rule="evenodd" d="M23.6113 13C24.3185 13 25.0257 13 25.7329 13C25.9094 13 26.0539 13.145 26.0539 13.3222C26.0539 14.0328 26.0539 14.7434 26.0539 15.454C24.7049 15.454 23.6113 14.3565 23.6113 13.0027L23.6114 13H23.6113Z" fill="#FE8700"/>
</g>
<defs>
<clipPath id="clip0_1430_9142">
<rect x="10" y="10" width="20" height="20" rx="4" fill="white"/>
</clipPath>
</defs>
</svg>
