<svg width="40" height="40" viewBox="0 0 40 40" fill="none" xmlns="http://www.w3.org/2000/svg">
<path d="M0 20C0 8.95431 8.95431 0 20 0C31.0457 0 40 8.95431 40 20C40 31.0457 31.0457 40 20 40C8.95431 40 0 31.0457 0 20Z" fill="#222124"/>
<path d="M0.5 20C0.5 9.23045 9.23045 0.5 20 0.5C30.7696 0.5 39.5 9.23045 39.5 20C39.5 30.7696 30.7696 39.5 20 39.5C9.23045 39.5 0.5 30.7696 0.5 20Z" stroke="white" stroke-opacity="0.1"/>
<path d="M23.1013 16.0652C23.1829 16.1469 23.1829 16.2786 23.1013 16.3602C23.0196 16.4419 22.8879 16.4419 22.8063 16.3602C22.7246 16.2786 22.7246 16.1469 22.8063 16.0652C22.8879 15.9844 23.0196 15.9844 23.1013 16.0652" stroke="#D13030" stroke-width="1.5" stroke-linecap="round" stroke-linejoin="round"/>
<path fill-rule="evenodd" clip-rule="evenodd" d="M21.2598 12.5H24.914C25.8823 12.5 26.6665 13.2842 26.6665 14.2517V17.9058C26.6665 18.3708 26.4815 18.8158 26.1531 19.145L19.1448 26.1533C18.4606 26.8375 17.3515 26.8375 16.6673 26.1533L13.0131 22.4992C12.329 21.815 12.329 20.7058 13.0131 20.0217L20.0215 13.0133C20.3498 12.685 20.7956 12.5 21.2598 12.5Z" stroke="#D13030" stroke-width="1.5" stroke-linecap="round" stroke-linejoin="round"/>
<path d="M21.666 27.5H24.9993C25.9202 27.5 26.666 26.7542 26.666 25.8333V22.5" stroke="#D13030" stroke-width="1.5" stroke-linecap="round" stroke-linejoin="round"/>
</svg>
