<svg width="40" height="40" viewBox="0 0 40 40" fill="none" xmlns="http://www.w3.org/2000/svg">
<path d="M0 20C0 8.95431 8.95431 0 20 0C31.0457 0 40 8.95431 40 20C40 31.0457 31.0457 40 20 40C8.95431 40 0 31.0457 0 20Z" fill="#222124"/>
<path d="M0.5 20C0.5 9.23045 9.23045 0.5 20 0.5C30.7696 0.5 39.5 9.23045 39.5 20C39.5 30.7696 30.7696 39.5 20 39.5C9.23045 39.5 0.5 30.7696 0.5 20Z" stroke="white" stroke-opacity="0.1"/>
<path d="M17.3284 26.66H15.5V13.5H21.5249C22.1459 13.5 22.7133 13.5951 23.227 13.7853C23.7436 13.9755 24.1876 14.2424 24.5591 14.5859C24.9335 14.9264 25.2237 15.3344 25.4297 15.8099C25.6358 16.2823 25.7388 16.8038 25.7388 17.3744C25.7388 17.8959 25.6517 18.3683 25.4776 18.7916C25.3064 19.2119 25.0626 19.5723 24.7463 19.8729C24.4299 20.1736 24.0497 20.4052 23.6057 20.5677C23.1617 20.7303 22.6683 20.8116 22.1256 20.8116V20.8024C22.3752 20.8024 22.6103 20.8469 22.8308 20.9359C23.0514 21.0248 23.2589 21.1567 23.4534 21.3316C23.6507 21.5064 23.8335 21.7227 24.0019 21.9804C24.1702 22.2381 24.3255 22.5356 24.4677 22.873L26.074 26.66H24.0672L22.4652 22.8777C22.3607 22.6292 22.2403 22.4206 22.1039 22.2519C21.9704 22.0801 21.8078 21.942 21.6163 21.8377C21.4247 21.7334 21.1984 21.6583 20.9372 21.6123C20.676 21.5663 20.3655 21.5432 20.0056 21.5432H17.0976L17.3284 21.2257V26.66ZM17.1803 15.2945L17.3284 15.0967V20.0616L17.0976 19.7487H21.2898C21.699 19.7487 22.0661 19.6966 22.3912 19.5923C22.7162 19.488 22.9905 19.3392 23.2139 19.1459C23.4403 18.9496 23.613 18.7103 23.732 18.4281C23.851 18.1459 23.9104 17.8268 23.9104 17.471C23.9104 17.1213 23.8524 16.8115 23.7363 16.5415C23.6202 16.2716 23.4505 16.0446 23.227 15.8605C23.0035 15.6765 22.7278 15.5369 22.3999 15.4418C22.0748 15.3436 21.7019 15.2945 21.2811 15.2945H17.1803Z" fill="url(#paint0_linear_1430_9115)"/>
<defs>
<linearGradient id="paint0_linear_1430_9115" x1="15.5" y1="15.3506" x2="26.8555" y2="21.5205" gradientUnits="userSpaceOnUse">
<stop stop-color="#FD79FF"/>
<stop offset="0.0001" stop-color="#FD79FF"/>
<stop offset="1" stop-color="#7F76FD"/>
</linearGradient>
</defs>
</svg>
