<svg width="104" height="104" viewBox="0 0 104 104" fill="none" xmlns="http://www.w3.org/2000/svg">
<path d="M49.7601 99.9431C10.0148 101.8 -1.48296 63.7875 7.79615 48.3574C13.8466 38.2966 40.1875 43.4764 35.1372 16.2018C32.6666 2.85568 55.7396 -2.02365 71.4517 6.73431C87.2978 15.5668 97.6637 28.2132 98.91 47.0927C100.157 65.9727 83.845 68.3942 89.6014 78.2204C94.9782 87.3973 74.5509 98.7847 49.7601 99.9431Z" fill="#AFEEC1"/>
<path d="M93.2971 67.3916C88.4882 72.3767 89.2168 80.4517 94.7641 76.1623C100.311 71.8729 98.1054 62.4066 93.2971 67.3916Z" fill="#AFEEC1"/>
<path d="M15.7235 30.8014C7.31623 30.9845 6.412 38.0236 15.1208 39.0416C23.8297 40.0585 30.8693 30.4709 15.7235 30.8014Z" fill="#AFEEC1"/>
<path d="M64.8813 78.2504H39.64C27.0196 79.4117 21.1719 93.6499 21.1719 93.6499C31.0715 102.45 52.2609 102.266 52.2609 102.266C52.2609 102.266 73.4504 102.45 83.35 93.6499C83.35 93.6499 77.5023 79.4117 64.8813 78.2504Z" fill="#4A476D"/>
<path d="M83.7472 93.5052C82.0635 89.463 79.2584 85.6341 75.9674 82.7689C71.8652 79.1971 67.2424 77.7873 61.9355 77.7873H44.2283C39.1352 77.7873 34.7401 78.1946 30.3721 81.2979C26.1941 84.2665 22.7073 88.7645 20.733 93.5052C20.5186 94.0194 21.3576 94.2436 21.569 93.7351C23.1319 89.9819 25.9671 86.131 29.1258 83.3819C33.3678 79.6893 37.9733 78.654 43.3507 78.654H59.3118C64.2397 78.654 68.4638 78.6603 72.8503 81.4926C77.22 84.3144 80.9652 89.0615 82.9117 93.7351C83.1226 94.2424 83.9615 94.0205 83.7472 93.5052Z" fill="#1E1E44"/>
<mask id="mask0_1127_53841" style="mask-type:luminance" maskUnits="userSpaceOnUse" x="31" y="78" width="42" height="8">
<path d="M31.9014 78.2507H72.6035V85.1733H31.9014V78.2507Z" fill="white"/>
</mask>
<g mask="url(#mask0_1127_53841)">
<g opacity="0.300003">
<path d="M52.2409 85.1733C52.2409 85.1733 63.1245 84.9954 72.6035 80.8493C70.3871 79.5053 67.8207 78.5208 64.8815 78.251H39.6401C36.694 78.522 34.1212 79.5105 31.9014 80.8597C41.3746 84.996 52.2409 85.1733 52.2409 85.1733Z" fill="#4A476D"/>
</g>
</g>
<path d="M31.7276 84.4118C30.1353 85.423 28.2563 87.0003 27.645 88.8538C27.5965 89.0017 27.8005 89.1173 27.905 89.0058C28.5799 88.2864 29.0745 87.4117 29.7366 86.675C30.3964 85.9395 31.1377 85.2646 31.9119 84.651C32.0483 84.5436 31.8721 84.32 31.7276 84.4118Z" fill="#1E1E44"/>
<path d="M30.356 87.549C29.06 88.749 27.4706 90.4726 27.0713 92.2458C27.0216 92.4659 27.2984 92.5699 27.4244 92.3942C27.9386 91.6761 28.2627 90.814 28.748 90.0681C29.2836 89.2459 29.8955 88.4752 30.5617 87.7547C30.6894 87.6166 30.4935 87.4213 30.356 87.549Z" fill="#1E1E44"/>
<path d="M33.2448 86.4118C32.0522 87.6927 30.6586 89.2285 30.0768 90.904C30.0277 91.0456 30.2328 91.1663 30.331 91.0525C30.8609 90.4366 31.248 89.7121 31.7125 89.0471C32.2787 88.2341 32.8883 87.4501 33.5273 86.6938C33.6908 86.5002 33.4227 86.2211 33.2448 86.4118Z" fill="#1E1E44"/>
<path d="M43.9475 93.9584C43.4709 95.237 42.9595 96.8484 43.0941 98.2322C43.1167 98.4587 43.4495 98.5378 43.5136 98.2888C43.8678 96.9125 43.9233 95.4375 44.2416 94.0398C44.2855 93.8463 44.0157 93.7769 43.9475 93.9584Z" fill="#1E1E44"/>
<path d="M45.5037 92.8917C45.1241 94.008 44.8531 95.2057 44.9461 96.3896C44.9612 96.5797 45.2708 96.6559 45.3049 96.4381C45.4869 95.2843 45.5898 94.1293 45.8504 92.987C45.9012 92.7606 45.5782 92.6733 45.5037 92.8917Z" fill="#1E1E44"/>
<path d="M46.5162 93.7071C46.2556 95.2024 45.9228 97.0432 46.3516 98.5258C46.3972 98.6841 46.678 98.7147 46.704 98.5258C46.9155 96.9687 46.6936 95.3336 46.8623 93.7539C46.8831 93.5581 46.5503 93.5113 46.5162 93.7071Z" fill="#1E1E44"/>
<path d="M61.5535 84.1665C61.9759 84.8517 62.3532 85.556 62.6813 86.291C63.0049 87.0143 63.195 87.8244 63.5919 88.5085C63.6942 88.6835 64.0166 88.6206 63.9964 88.3987C63.8537 86.8479 62.7403 85.2198 61.8632 83.9856C61.7321 83.8002 61.4299 83.9666 61.5535 84.1665Z" fill="#1E1E44"/>
<path d="M64.0289 85.4349C64.4761 86.26 64.8875 87.1007 65.2463 87.9679C65.5624 88.7329 65.7588 89.6048 66.232 90.2865C66.3499 90.457 66.6676 90.4142 66.6544 90.1721C66.6076 89.3638 66.1944 88.5885 65.8484 87.8662C65.4133 86.9574 64.9199 86.0809 64.3854 85.2264C64.2444 85.001 63.9012 85.2009 64.0289 85.4349Z" fill="#1E1E44"/>
<path d="M64.8972 83.74C65.6876 84.7418 66.2856 85.8835 67.0888 86.8686C67.2205 87.0298 67.5227 86.8559 67.4452 86.6612C66.9686 85.4617 66.0343 84.4085 65.1896 83.4476C65.0105 83.2448 64.7366 83.536 64.8972 83.74Z" fill="#1E1E44"/>
<path d="M73.8154 89.4956C74.2106 90.0687 74.5902 90.6523 74.949 91.2491C75.2743 91.7899 75.5401 92.3833 75.9486 92.8669C76.0936 93.0391 76.3871 92.8548 76.3218 92.6491C75.9376 91.4334 74.9582 90.2825 74.2071 89.2668C74.0373 89.0362 73.6478 89.2518 73.8154 89.4956Z" fill="#1E1E44"/>
<path d="M76.5186 90.2525C77.2102 91.2994 77.7284 92.5081 78.4848 93.5025C78.6107 93.6671 78.9273 93.5839 78.8499 93.3482C78.4605 92.1603 77.5904 91.0567 76.8687 90.0473C76.7196 89.8376 76.3724 90.0312 76.5186 90.2525Z" fill="#1E1E44"/>
<path d="M76.0579 87.6416C76.6958 88.4875 77.303 89.4091 78.0674 90.1446C78.2604 90.3295 78.592 90.0908 78.4453 89.8528C77.886 88.9486 77.1181 88.1616 76.4254 87.3591C76.2544 87.1609 75.8979 87.429 76.0579 87.6416Z" fill="#1E1E44"/>
<path d="M58.1762 95.8016C58.3998 96.7416 58.5061 97.9786 59.0278 98.8037C59.1099 98.9349 59.3248 98.8857 59.3237 98.724C59.3179 97.7452 58.7424 96.6474 58.4241 95.7328C58.3698 95.5774 58.1375 95.6386 58.1762 95.8016Z" fill="#1E1E44"/>
<path d="M58.7162 94.1402C59.1022 95.1057 59.3743 96.1422 59.8394 97.0713C59.9584 97.3082 60.297 97.136 60.2479 96.8991C60.0387 95.8909 59.4991 94.915 59.0259 94.0096C58.9387 93.8432 58.6446 93.9599 58.7162 94.1402Z" fill="#1E1E44"/>
<path d="M60.6518 95.1351C60.9644 96.3611 61.2186 97.6784 61.7363 98.8369C61.8553 99.1032 62.2181 98.8999 62.176 98.652C61.9639 97.4236 61.4399 96.2039 61.0239 95.0322C60.9413 94.8011 60.59 94.8912 60.6518 95.1351Z" fill="#1E1E44"/>
<path d="M41.0506 83.5616C40.6346 84.0343 40.248 84.5242 39.9083 85.0558C39.6067 85.5295 39.234 86.0467 39.1919 86.6204C39.1803 86.7851 39.397 86.8521 39.5039 86.7498C39.9002 86.3719 40.0967 85.7942 40.3699 85.3256C40.6756 84.8015 41.0032 84.2896 41.3533 83.7951C41.4799 83.6177 41.195 83.3975 41.0506 83.5616Z" fill="#1E1E44"/>
<path d="M41.2779 85.4664C40.4956 86.2649 39.7543 87.4361 39.8063 88.598C39.8173 88.8308 40.1206 88.8597 40.1992 88.6511C40.595 87.6013 40.8486 86.6618 41.5887 85.7778C41.7684 85.5641 41.4795 85.2613 41.2779 85.4664Z" fill="#1E1E44"/>
<path d="M42.9458 84.5802C42.2882 85.34 41.7729 86.2916 41.8272 87.3206C41.8376 87.5055 42.0976 87.5488 42.1536 87.3645C42.4229 86.4788 42.6771 85.6346 43.2618 84.8962C43.4369 84.6755 43.137 84.3595 42.9458 84.5802Z" fill="#1E1E44"/>
<path d="M52.9749 86.2307C53.0575 87.0546 53.0592 87.9421 53.2828 88.7418C53.3412 88.948 53.6382 88.8989 53.6492 88.6921C53.6902 87.8809 53.5012 87.035 53.4013 86.2307C53.3689 85.9638 52.9477 85.9545 52.9749 86.2307Z" fill="#1E1E44"/>
<path d="M54.1667 87.5093C54.2436 88.4043 54.2603 89.3593 54.5238 90.2225C54.5885 90.4357 54.9011 90.393 54.9097 90.1705C54.9433 89.268 54.7139 88.3401 54.559 87.4555C54.5203 87.236 54.1477 87.2845 54.1667 87.5093Z" fill="#1E1E44"/>
<path d="M54.9126 86.4917C55.0114 86.9926 55.0611 87.5323 55.2893 87.9934C55.3754 88.1667 55.6203 88.0685 55.6302 87.9009C55.6608 87.3884 55.4875 86.8615 55.3823 86.3617C55.3182 86.0543 54.8525 86.1855 54.9126 86.4917Z" fill="#1E1E44"/>
<path d="M71.6773 26.1391C71.6773 26.1391 71.445 15.5969 81.0661 12.8334C90.6867 10.0699 97.5449 22.0449 92.3247 29.6184C87.1045 37.1931 75.0272 31.8706 75.0272 31.8706L71.6773 26.1391Z" fill="#4A476D"/>
<path d="M74.5154 27.9816C74.5154 27.9816 73.7475 20.7149 79.9806 18.6678C86.662 16.4729 89.5613 25.0841 85.5694 28.9032C82.1663 32.1584 76.6156 30.2217 76.6156 30.2217L74.5154 27.9816Z" fill="#6F6A9F"/>
<path d="M74.9483 27.9814C74.753 25.9487 75.2106 23.6683 76.3246 21.9534C78.6449 18.3827 84.3488 17.3358 86.3693 21.7038C88.3741 26.0389 85.1449 30.1683 80.6163 30.3549C79.5168 30.4005 77.769 30.3942 76.7666 29.8158C76.3916 29.5991 75.3643 28.2541 74.8212 27.6751C74.4393 27.2672 73.8274 27.8808 74.2088 28.2876C75.0182 29.1508 75.7445 30.248 76.8169 30.7374C78.56 31.5312 81.2051 31.3937 82.9921 30.8587C87.0695 29.6384 88.9144 25.126 87.1516 21.3115C85.2963 17.2977 80.4545 17.055 77.2352 19.655C74.8507 21.5807 73.7928 24.9821 74.0817 27.9814C74.1348 28.5314 75.0021 28.5372 74.9483 27.9814Z" fill="#1E1E44"/>
<mask id="mask1_1127_53841" style="mask-type:luminance" maskUnits="userSpaceOnUse" x="87" y="19" width="6" height="12">
<path d="M87.2021 19.0628H92.3894V30.6489H87.2021V19.0628Z" fill="white"/>
</mask>
<g mask="url(#mask1_1127_53841)">
<g opacity="0.5">
<path d="M90.7224 21.0549C90.8102 22.6836 90.5017 24.2644 90.1001 25.8337C89.9996 26.226 90.5462 26.3525 90.6918 25.9966C91.3528 24.3794 91.2782 22.6836 90.7935 21.0451C90.7825 21.0075 90.7201 21.0127 90.7224 21.0549Z" fill="#4A476D"/>
<path d="M92.0916 25.23C91.7426 25.9123 91.4849 26.6328 91.1278 27.3117C90.7632 28.0027 90.2259 28.5921 89.8868 29.2877C89.7851 29.4957 90.0064 29.7886 90.2323 29.6338C91.4768 28.781 92.2944 26.7172 92.1586 25.2485C92.1557 25.2161 92.1089 25.1953 92.0916 25.23Z" fill="#4A476D"/>
<path d="M89.8266 27.4066C89.4221 27.8972 89.0443 28.4102 88.6277 28.8909C88.2013 29.3832 87.698 29.8004 87.263 30.2834C87.0954 30.4683 87.304 30.7329 87.5259 30.6231C88.6999 30.0413 89.64 28.7089 89.8792 27.4378C89.8849 27.4095 89.8485 27.3801 89.8266 27.4066Z" fill="#4A476D"/>
<path d="M89.4106 23.784C88.9634 25.006 88.2614 26.0795 87.6091 27.1935C87.4617 27.4448 87.8165 27.7355 88.0205 27.5107C88.9593 26.4771 89.347 25.1516 89.4545 23.7904C89.4568 23.7632 89.4187 23.7615 89.4106 23.784Z" fill="#4A476D"/>
<path d="M90.9867 19.1694C91.7765 20.3527 91.8626 22.1906 91.9464 23.5559C91.9585 23.7506 92.2509 23.8113 92.3006 23.6039C92.5109 22.7343 92.3127 21.8243 92.0544 20.9819C91.8424 20.292 91.6454 19.5808 91.0999 19.0822C91.0427 19.029 90.9393 19.0984 90.9867 19.1694Z" fill="#4A476D"/>
</g>
</g>
<mask id="mask2_1127_53841" style="mask-type:luminance" maskUnits="userSpaceOnUse" x="76" y="20" width="19" height="14">
<path d="M76.8301 20.3298H94.123V33.688H76.8301V20.3298Z" fill="white"/>
</mask>
<g mask="url(#mask2_1127_53841)">
<g opacity="0.300003">
<path d="M77.0508 32.6008C76.8821 31.9543 76.8301 31.5493 76.8301 31.5493C88.7837 32.8181 92.4746 25.2943 93.6145 20.33C94.5343 23.3789 94.2657 26.8028 92.3249 29.6189C88.4284 35.2725 80.7145 33.7414 77.0508 32.6008Z" fill="#4A476D"/>
</g>
</g>
<mask id="mask3_1127_53841" style="mask-type:luminance" maskUnits="userSpaceOnUse" x="74" y="14" width="16" height="6">
<path d="M74.6592 14.2435H89.8305V19.8901H74.6592V14.2435Z" fill="white"/>
</mask>
<g mask="url(#mask3_1127_53841)">
<g opacity="0.300003">
<path d="M74.7249 19.872C77.8593 14.8332 85.6801 12.9901 89.3987 18.2999C89.5744 18.5501 89.9274 18.338 89.8049 18.063C86.8334 11.4313 77.0897 14.3589 74.6631 19.8356C74.644 19.8772 74.7 19.9119 74.7249 19.872Z" fill="white"/>
</g>
</g>
<path d="M32.9478 26.1391C32.9478 26.1391 33.18 15.5969 23.5589 12.8334C13.9383 10.0699 7.0801 22.0449 12.3003 29.6184C17.5205 37.1931 29.5978 31.8706 29.5978 31.8706L32.9478 26.1391Z" fill="#4A476D"/>
<path d="M30.1097 27.9816C30.1097 27.9816 30.8776 20.7149 24.6451 18.6678C17.9631 16.4729 15.0638 25.0841 19.0557 28.9032C22.4588 32.1584 28.0095 30.2217 28.0095 30.2217L30.1097 27.9816Z" fill="#6F6A9F"/>
<path d="M30.5432 27.9817C30.8321 24.9819 29.7747 21.5816 27.3903 19.6553C24.1709 17.0559 19.3285 17.2974 17.4733 21.3118C15.7105 25.1269 17.5553 29.6382 21.6327 30.859C23.4221 31.3946 26.0614 31.5327 27.808 30.7377C28.8798 30.2489 29.6078 29.1505 30.4161 28.2879C30.7968 27.8812 30.1855 27.2676 29.8036 27.6755C29.2721 28.2423 28.2142 29.6041 27.8583 29.8161C26.8726 30.4032 25.0884 30.4003 24.0085 30.3552C19.4522 30.1674 16.2807 26.0461 18.2556 21.7041C20.2478 17.3252 26.0007 18.3929 28.3003 21.9537C29.4113 23.6744 29.8724 25.9462 29.6765 27.9817C29.6228 28.5364 30.49 28.5329 30.5432 27.9817Z" fill="#1E1E44"/>
<mask id="mask4_1127_53841" style="mask-type:luminance" maskUnits="userSpaceOnUse" x="12" y="19" width="6" height="12">
<path d="M12.2354 19.0628H17.4226V30.6484H12.2354V19.0628Z" fill="white"/>
</mask>
<g mask="url(#mask4_1127_53841)">
<g opacity="0.5">
<path d="M13.831 21.0456C13.3463 22.6842 13.2717 24.38 13.9327 25.9966C14.0783 26.3525 14.6255 26.2277 14.5243 25.8337C14.1228 24.2656 13.8143 22.6831 13.9021 21.0555C13.9044 21.0133 13.8426 21.0075 13.831 21.0456Z" fill="#4A476D"/>
<path d="M12.4657 25.2482C12.3305 26.7175 13.1487 28.7801 14.3926 29.6335C14.618 29.7878 14.8393 29.4954 14.7381 29.2874C14.3984 28.5918 13.8611 28.0025 13.4965 27.3109C13.1394 26.6325 12.8823 25.9115 12.5328 25.2297C12.5154 25.195 12.4692 25.2153 12.4657 25.2482Z" fill="#4A476D"/>
<path d="M14.7456 27.4376C14.9848 28.7081 15.9254 30.041 17.0989 30.6234C17.319 30.7321 17.5299 30.4698 17.3618 30.2831C16.9262 29.8001 16.4229 29.383 15.9971 28.8913C15.5799 28.4106 15.2026 27.8969 14.7988 27.4064C14.7768 27.3798 14.7404 27.4093 14.7456 27.4376Z" fill="#4A476D"/>
<path d="M15.17 23.7905C15.2781 25.1517 15.6658 26.4777 16.6041 27.5108C16.8063 27.7332 17.1639 27.4478 17.0154 27.1941C16.3631 26.0796 15.6617 25.0061 15.2145 23.7841C15.2058 23.7621 15.1677 23.7627 15.17 23.7905Z" fill="#4A476D"/>
<path d="M13.524 19.0816C12.9798 19.5802 12.7816 20.2921 12.5701 20.9813C12.3118 21.8237 12.1137 22.7332 12.3234 23.6033C12.3731 23.8096 12.666 23.7518 12.6776 23.5553C12.7619 22.1924 12.848 20.3521 13.6373 19.1689C13.6846 19.0984 13.583 19.0279 13.524 19.0816Z" fill="#4A476D"/>
</g>
</g>
<mask id="mask5_1127_53841" style="mask-type:luminance" maskUnits="userSpaceOnUse" x="10" y="20" width="18" height="14">
<path d="M10.502 20.3298H27.7949V33.688H10.502V20.3298Z" fill="white"/>
</mask>
<g mask="url(#mask5_1127_53841)">
<g opacity="0.300003">
<path d="M27.5743 32.6008C27.743 31.9543 27.795 31.5493 27.795 31.5493C15.8414 32.8181 12.1505 25.2943 11.0106 20.33C10.0907 23.3789 10.36 26.8028 12.3002 29.6189C16.1967 35.2725 23.9112 33.7414 27.5743 32.6008Z" fill="#4A476D"/>
</g>
</g>
<mask id="mask6_1127_53841" style="mask-type:luminance" maskUnits="userSpaceOnUse" x="14" y="14" width="16" height="6">
<path d="M14.7949 14.2435H29.9662V19.8901H14.7949V14.2435Z" fill="white"/>
</mask>
<g mask="url(#mask6_1127_53841)">
<g opacity="0.300003">
<path d="M29.9623 19.8354C27.535 14.3586 17.7914 11.431 14.8205 18.0633C14.6974 18.3372 15.0498 18.5504 15.2255 18.3002C18.9446 12.9899 26.7654 14.8336 29.8999 19.8718C29.9253 19.9122 29.9802 19.877 29.9623 19.8354Z" fill="white"/>
</g>
</g>
<path d="M71.8444 24.7122C66.8374 21.1872 60.2426 19.3187 53.5514 19.1043C55.473 17.9459 60.4107 17.0284 57.8471 16.0427C55.1865 15.0194 52.2704 16.8256 52.2704 16.8256C52.2704 16.8256 51.0923 10.3764 48.7078 10.2747C46.3228 10.1725 48.7078 16.4159 48.7078 16.4159C48.7078 16.4159 45.0459 14.7577 43.7147 15.7815C42.3846 16.8048 44.6449 18.6092 45.9738 18.5317C48.5212 18.3838 48.7078 19.2401 48.7078 19.2401H48.7431C42.8243 19.7555 37.1118 21.5761 32.6572 24.7122C16.7614 35.9021 15.206 57.6369 19.9391 67.1038C27.0348 81.2952 52.2508 81.7065 52.2508 81.7065C52.2508 81.7065 77.4662 81.2952 84.5618 67.1038C89.295 57.6369 87.7396 35.9021 71.8444 24.7122Z" fill="#EAECFF"/>
<mask id="mask7_1127_53841" style="mask-type:luminance" maskUnits="userSpaceOnUse" x="17" y="58" width="70" height="24">
<path d="M17.7109 58.238H86.7895V81.7065H17.7109V58.238Z" fill="white"/>
</mask>
<g mask="url(#mask7_1127_53841)">
<g opacity="0.699997">
<path d="M85.3699 62.1244C78.0968 76.6711 52.2505 77.0923 52.2505 77.0923C52.2505 77.0923 26.4036 76.6711 19.13 62.1244C18.5637 60.9902 18.0888 59.6793 17.7109 58.2389C17.9952 61.7084 18.7758 64.7781 19.9388 67.1043C27.0345 81.2957 52.2505 81.707 52.2505 81.707C52.2505 81.707 77.4659 81.2957 84.5615 67.1043C85.7246 64.7781 86.5052 61.7078 86.7895 58.2383C86.4116 59.6793 85.9367 60.9902 85.3699 62.1244Z" fill="#EAECFF"/>
</g>
</g>
<path d="M47.6533 49.3704C48.7967 57.2409 44.1115 64.4371 37.1886 65.4425C30.265 66.4489 23.7263 60.8838 22.5829 53.0127C21.4395 45.1417 26.1247 37.946 33.0476 36.9395C39.9706 35.9342 46.5098 41.4993 47.6533 49.3704Z" fill="#4A476D"/>
<path d="M56.8485 49.3704C55.7051 57.2409 60.3903 64.4371 67.3127 65.4425C74.2362 66.4489 80.7749 60.8838 81.9189 53.0127C83.0617 45.1417 78.3771 37.946 71.4536 36.9395C64.5313 35.9342 57.992 41.4993 56.8485 49.3704Z" fill="#4A476D"/>
<mask id="mask8_1127_53841" style="mask-type:luminance" maskUnits="userSpaceOnUse" x="32" y="21" width="38" height="7">
<path d="M32.665 21.6224H69.6752V27.7422H32.665V21.6224Z" fill="white"/>
</mask>
<g mask="url(#mask8_1127_53841)">
<g opacity="0.800003">
<path d="M69.6589 25.8552C58.3946 20.5449 43.2967 19.4182 32.7938 27.2367C32.5061 27.4511 32.7453 27.8526 33.0723 27.7128C39.0968 25.1353 44.332 22.2782 51.0996 22.3152C57.4118 22.3504 63.6697 23.9688 69.6335 25.9153C69.6688 25.9263 69.693 25.8708 69.6589 25.8552Z" fill="white"/>
</g>
</g>
<path d="M35.4637 47.095C28.7066 46.924 27.4228 55.051 29.7327 58.7292C30.8871 60.5677 32.3316 61.8457 35.4637 61.8457C38.4953 61.8457 40.0403 60.5677 41.1953 58.7292C43.5047 55.051 42.2214 46.924 35.4637 47.095Z" fill="white"/>
<path d="M42.362 52.0467C40.969 47.3782 35.4634 44.7886 31.2259 47.9121C27.9522 50.3249 27.4057 55.5665 29.3591 58.947C29.6382 59.4301 30.387 58.9938 30.1074 58.5102C28.537 55.7912 28.7565 51.7104 30.9255 49.3507C34.369 45.6056 40.1925 47.8092 41.526 52.2772C41.6849 52.8105 42.5215 52.5834 42.362 52.0467Z" fill="#1E1E44"/>
<path d="M41.4988 54.7117C41.4988 57.6307 39.5846 59.9961 37.2238 59.9961C34.8624 59.9961 32.9482 57.6307 32.9482 54.7117C32.9482 51.7928 34.8624 49.4274 37.2238 49.4274C39.5846 49.4274 41.4988 51.7928 41.4988 54.7117Z" fill="#1E1E44"/>
<path d="M69.0371 47.095C75.7948 46.924 77.078 55.051 74.7686 58.7292C73.6136 60.5677 72.1698 61.8457 69.0371 61.8457C66.006 61.8457 64.4605 60.5677 63.3061 58.7292C60.9961 55.051 62.2794 46.924 69.0371 47.095Z" fill="white"/>
<path d="M62.9749 52.2775C64.3113 47.7998 70.1358 45.6106 73.5753 49.3511C75.7437 51.709 75.9627 55.7927 74.3941 58.51C74.1138 58.9936 74.8626 59.431 75.1423 58.9474C77.0946 55.5657 76.5486 50.3241 73.2755 47.9119C69.0404 44.7907 63.5318 47.3797 62.1394 52.047C61.9793 52.5826 62.816 52.8114 62.9749 52.2775Z" fill="#1E1E44"/>
<path d="M63.0029 54.7117C63.0029 57.6307 64.9171 59.9961 67.2779 59.9961C69.6387 59.9961 71.5535 57.6307 71.5535 54.7117C71.5535 51.7928 69.6387 49.4274 67.2779 49.4274C64.9171 49.4274 63.0029 51.7928 63.0029 54.7117Z" fill="#1E1E44"/>
<path d="M28.7866 66.6915C22.2721 65.1973 24.3556 60.7427 28.7866 61.8023C34.9203 63.2687 34.1172 67.9134 28.7866 66.6915Z" fill="#FFAFBE"/>
<path d="M75.7147 66.6915C82.2286 65.1973 80.1457 60.7427 75.7147 61.8023C69.5805 63.2687 70.3842 67.9134 75.7147 66.6915Z" fill="#FFAFBE"/>
<path d="M32.4933 46.2802C33.6373 45.7896 35.2014 45.4447 37.0139 46.0958C38.3104 46.5615 39.0291 45.5227 38.0787 44.7797C36.9844 43.9234 34.2405 43.4265 32.3229 44.3683C30.4052 45.3101 30.5364 45.9531 30.6901 46.3189C30.8432 46.6846 31.4187 46.7406 32.4933 46.2802Z" fill="#1E1E44"/>
<path d="M72.0077 46.2802C70.8643 45.7896 69.2997 45.4447 67.4872 46.0958C66.1913 46.5615 65.4725 45.5227 66.4224 44.7797C67.5167 43.9234 70.2605 43.4265 72.1782 44.3683C74.0964 45.3101 73.9653 45.9531 73.8116 46.3189C73.6579 46.6846 73.083 46.7406 72.0077 46.2802Z" fill="#1E1E44"/>
<path d="M51.8076 65.0783V70.4632C51.8076 71.0208 52.6743 71.0219 52.6743 70.4632V65.0783C52.6743 64.5202 51.8076 64.5191 51.8076 65.0783Z" fill="#1E1E44"/>
<path d="M46.1986 70.0784C46.6631 70.8087 47.3686 71.4443 48.1572 71.8002C49.7687 72.5276 51.3142 71.7996 52.5466 70.7041C52.9643 70.3326 52.3496 69.7219 51.9342 70.0911C50.2904 71.5523 48.1844 71.5864 46.9474 69.6404C46.6487 69.1713 45.8981 69.6058 46.1986 70.0784Z" fill="#1E1E44"/>
<path d="M57.5537 69.6404C56.3173 71.5852 54.2107 71.5529 52.5669 70.0911C52.1509 69.7225 51.5361 70.3326 51.9539 70.7041C53.1869 71.7996 54.7307 72.5276 56.3438 71.8002C57.1325 71.4443 57.8374 70.8081 58.3019 70.0784C58.6018 69.6058 57.8524 69.1707 57.5537 69.6404Z" fill="#1E1E44"/>
<path d="M57.8985 61.6411C57.6587 59.9961 54.6479 59.8291 52.2507 59.8534C49.8529 59.8291 46.8416 59.9961 46.6024 61.6411C46.1985 64.415 52.2507 67.2524 52.2507 67.2524C52.2507 67.2524 58.3018 64.415 57.8985 61.6411Z" fill="#1E1E44"/>
<path d="M48.3682 61.6914C51.004 61.027 53.8079 61.0397 56.4374 61.729L48.3682 61.6914Z" fill="#1E1E44"/>
<path d="M48.407 61.8313C51.1937 61.3188 53.666 61.6071 56.437 61.9324C56.6797 61.9613 56.6889 61.6077 56.4907 61.5332C53.9341 60.5717 50.9088 60.8213 48.3296 61.5511C48.147 61.6025 48.225 61.8654 48.407 61.8313Z" fill="#6F6A9F"/>
<path d="M80.2693 33.6721C86.3666 43.1517 89.9165 58.9828 82.9236 69.0131C77.7363 76.452 67.7772 79.316 59.2538 80.6085C55.5681 81.1678 52.0841 81.3833 48.3916 81.0066C40.0352 80.1532 30.685 77.9634 24.3341 72.1331C13.9375 62.5893 17.5914 44.361 24.3601 33.8674C24.664 33.3971 23.914 32.962 23.6118 33.4295C17.4198 43.0287 13.8312 58.6021 20.4872 68.9391C25.652 76.9587 36.0993 80.0908 45.0173 81.4445C49.3206 82.0974 53.2362 82.243 57.5384 81.712C66.3431 80.6247 76.4779 78.0154 82.4805 70.9908C91.1564 60.8381 87.5805 43.4383 81.0175 33.2342C80.7165 32.7673 79.9665 33.2012 80.2693 33.6721Z" fill="#1E1E44"/>
<path d="M32.8752 25.0863C37.6327 21.8652 43.0591 20.2393 48.7428 19.6737C49.0888 19.639 49.3483 19.2103 49.049 18.9341C48.6272 18.5441 47.9154 18.465 47.3884 18.346C46.8343 18.2212 45.2587 18.1957 44.8358 17.7012C42.2543 14.6782 48.139 16.6144 48.4885 16.79C48.7942 16.9425 49.2685 16.6825 49.1252 16.3006C48.7098 15.1913 47.0655 9.78214 49.7672 11.4375C51.0926 12.2498 51.575 15.479 51.8529 16.9402C51.9061 17.2193 52.2637 17.3308 52.4891 17.1997C53.1264 16.827 53.8243 16.5398 54.5419 16.3653C55.4733 16.1394 58.8908 16.0591 56.7409 17.3054C55.694 17.9121 54.4113 18.1484 53.332 18.7302C52.9374 18.9428 53.1408 19.5194 53.551 19.5373C59.995 19.8239 66.2431 21.4434 71.6251 25.0863C72.0884 25.4001 72.5224 24.6495 72.0624 24.3381C66.5626 20.6155 60.136 18.9636 53.551 18.6707C53.6238 18.9399 53.6966 19.2092 53.77 19.4784C54.7915 18.9284 60.2376 17.8219 58.5482 15.9124C57.462 14.6852 54.5425 15.3883 53.3072 15.8604C53.0299 15.9667 52.7005 16.0741 52.4492 16.2342C51.8599 16.6074 52.6953 16.6363 52.6451 16.4884C52.4301 15.8615 52.3452 15.1745 52.1516 14.5367C51.7379 13.1725 50.1283 8.52548 47.8611 10.0837C46.1792 11.2393 47.7721 15.1503 48.2898 16.5306L48.9259 16.0418C47.645 15.3987 43.3018 13.7861 42.95 16.3723C42.553 19.2802 47.2717 18.4708 48.4365 19.5466C48.5376 19.2999 48.6405 19.0537 48.7428 18.807C42.9112 19.3877 37.3195 21.0326 32.4379 24.3381C31.9785 24.6489 32.4119 25.4006 32.8752 25.0863Z" fill="#1E1E44"/>
<path d="M72.1516 24.567C72.5769 21.4302 73.7561 18.2848 76.1036 16.0719C79.7274 12.6561 85.3764 11.6664 89.4226 14.8829C92.6916 17.4829 94.3689 22.0976 93.337 26.179C91.8446 32.0821 86.1934 33.782 80.7582 33.0361C80.2128 32.9609 79.977 33.7964 80.5282 33.8715C85.7906 34.5937 91.3142 33.3954 93.6161 28.0677C95.4557 23.8113 94.2967 18.6234 91.1542 15.2908C87.6846 11.6126 82.5412 11.1683 78.1721 13.5199C74.1155 15.7021 71.9188 19.8945 71.3162 24.337C71.2422 24.8819 72.0771 25.1176 72.1516 24.567Z" fill="#1E1E44"/>
<path d="M33.2521 24.3365C32.6685 20.0344 30.5908 15.931 26.7313 13.699C22.3315 11.1545 16.9663 11.5069 13.4141 15.2908C10.2906 18.6188 9.11774 23.761 10.9297 28.0158C13.2159 33.3816 18.7539 34.5973 24.04 33.8716C24.5901 33.7959 24.3561 32.961 23.8095 33.0361C18.5251 33.7612 12.9201 32.211 11.3087 26.4945C10.1346 22.3281 11.7813 17.558 15.1457 14.8829C19.0763 11.7577 24.5976 12.5822 28.2121 15.8437C30.7076 18.0948 31.9729 21.2962 32.4166 24.5665C32.4912 25.1171 33.326 24.8825 33.2521 24.3365Z" fill="#1E1E44"/>
</svg>
