<svg width="36" height="36" viewBox="0 0 36 36" fill="none" xmlns="http://www.w3.org/2000/svg">
<g clip-path="url(#clip0_1127_53003)">
<path d="M2.78178 16.2205C5.34378 13.0659 13.9942 14.5309 12.2462 5.08975C11.391 0.47015 19.1886 -0.85165 24.8166 1.81275C30.7422 4.61815 35.4228 10.6277 34.5452 20.4809C33.9378 27.3007 29.4268 34.0771 17.3078 34.0771C2.39618 34.0771 -1.37662 21.3413 2.78178 16.2205Z" fill="#91E0FD"/>
<path d="M5.88505 5.63656C0.785648 7.66256 -0.730752 17.1488 9.12405 12.2984C13.6038 10.0934 12.1676 3.14056 5.88505 5.63656Z" fill="#91E0FD"/>
<path d="M9.52694 1.98365C7.89894 2.80305 10.0291 5.19925 10.9885 4.22065C11.9481 3.24205 10.9853 1.24965 9.52694 1.98365Z" fill="#91E0FD"/>
<path d="M22.2982 27.1076H13.5608C9.19217 27.5094 7.16797 32.4382 7.16797 32.4382C10.5948 35.4842 17.9296 35.4208 17.9296 35.4208C17.9296 35.4208 25.2644 35.4842 28.6912 32.4382C28.6912 32.4382 26.6668 27.5094 22.2982 27.1076Z" fill="#F0F0FF"/>
<mask id="mask0_1127_53003" style="mask-type:luminance" maskUnits="userSpaceOnUse" x="10" y="27" width="16" height="3">
<path d="M10.6943 27.1074H25.1589V29.7036H10.6943V27.1074Z" fill="white"/>
</mask>
<g mask="url(#mask0_1127_53003)">
<g opacity="0.800003">
<path d="M13.5607 27.1079C12.4571 27.2093 11.5037 27.6001 10.6943 28.1269C14.0159 29.6401 17.9223 29.7041 17.9223 29.7041C17.9223 29.7041 21.8355 29.6401 25.1589 28.1233C24.3505 27.5983 23.3989 27.2091 22.2981 27.1079H13.5607Z" fill="#F0F0FF"/>
</g>
</g>
<path d="M28.8285 32.388C28.2457 30.9888 27.2747 29.6634 26.1355 28.6716C24.7155 27.4354 23.1153 26.9472 21.2783 26.9472H15.1487C13.3859 26.9472 11.8643 27.0882 10.3525 28.1624C8.90634 29.19 7.69934 30.747 7.01594 32.388C6.94174 32.566 7.23194 32.6436 7.30534 32.4676C7.84634 31.1686 8.82774 29.8356 9.92094 28.8838C11.3895 27.6056 12.9837 27.2472 14.8451 27.2472H20.3701C22.0759 27.2472 23.5379 27.2494 25.0565 28.2298C26.5691 29.2066 27.8653 30.8498 28.5393 32.4676C28.6123 32.6434 28.9027 32.5664 28.8285 32.388Z" fill="#4C4C8A"/>
<path d="M10.5244 34.2958C13.962 35.454 17.8516 35.4208 17.8516 35.4208C17.8516 35.4208 21.8598 35.455 25.3346 34.2424C24.4844 33.0088 22.5736 30.3776 17.929 30.3776C13.2174 30.3776 11.38 33.0856 10.5244 34.2958Z" fill="white"/>
<path d="M11.481 28.4837C11.1306 28.6353 10.7958 28.8657 10.5826 29.1879C10.5506 29.2365 10.617 29.3089 10.666 29.2713C10.9604 29.0447 11.2386 28.8081 11.5584 28.6159C11.645 28.5639 11.5692 28.4457 11.481 28.4837Z" fill="white"/>
<path d="M11.7799 29.7338C11.5207 29.8814 11.2965 30.1108 11.1543 30.3728C11.1135 30.4476 11.2093 30.5228 11.2719 30.4636C11.4785 30.2688 11.6827 30.067 11.8783 29.8614C11.9415 29.795 11.8613 29.6874 11.7799 29.7338Z" fill="white"/>
<path d="M10.5059 29.9647C10.1685 30.1567 9.85727 30.4701 9.68847 30.8221C9.65167 30.8991 9.75347 30.9969 9.81607 30.9205C10.0617 30.6207 10.3011 30.3257 10.5645 30.0407C10.6015 30.0009 10.5549 29.9367 10.5059 29.9647Z" fill="white"/>
<path d="M9.12109 30.7023C8.77169 30.9755 8.47929 31.3565 8.32429 31.7731C8.28729 31.8729 8.43349 31.9207 8.48709 31.8419C8.72989 31.4843 8.96609 31.1295 9.22909 30.7857C9.28069 30.7181 9.17649 30.6591 9.12109 30.7023Z" fill="white"/>
<path d="M9.22365 31.9001C8.98345 32.2085 8.76805 32.6065 8.78845 33.0087C8.79265 33.0901 8.89485 33.0973 8.92345 33.0271C9.06605 32.6767 9.14985 32.3195 9.32925 31.9815C9.36305 31.9177 9.27265 31.8373 9.22365 31.9001Z" fill="white"/>
<path d="M10.6716 31.5189C10.481 31.7455 10.3002 32.0065 10.2426 32.3027C10.2282 32.3777 10.3256 32.4243 10.3684 32.3557C10.5194 32.1133 10.6342 31.8513 10.7944 31.6137C10.8432 31.5409 10.729 31.4507 10.6716 31.5189Z" fill="white"/>
<path d="M12.3793 30.9442C12.1291 31.2354 11.9075 31.5584 11.8137 31.9356C11.7955 32.0086 11.8975 32.0544 11.9365 31.9874C12.1221 31.6684 12.2853 31.3396 12.5069 31.0426C12.5619 30.9692 12.4393 30.8744 12.3793 30.9442Z" fill="white"/>
<path d="M13.3351 29.0954C13.0379 29.3434 12.7409 29.6174 12.5511 29.959C12.5215 30.0122 12.5901 30.0644 12.6345 30.0234C12.9161 29.7628 13.1591 29.4628 13.4389 29.1994C13.5089 29.1334 13.4065 29.0358 13.3351 29.0954Z" fill="white"/>
<path d="M12.967 28.0764C12.7248 28.2688 12.5044 28.4712 12.3372 28.733C12.3092 28.7766 12.37 28.818 12.4058 28.786C12.6298 28.5866 12.8362 28.3684 13.0642 28.1736C13.1324 28.1154 13.035 28.0224 12.967 28.0764Z" fill="white"/>
<path d="M14.1537 29.7794C14.0327 29.9294 13.9177 30.084 13.8123 30.2456C13.7119 30.4 13.5877 30.578 13.5613 30.7636C13.5529 30.8214 13.6197 30.8774 13.6683 30.8258C13.7901 30.6966 13.8605 30.5166 13.9477 30.3626C14.0447 30.1912 14.1519 30.0264 14.2665 29.8666C14.3137 29.8008 14.2049 29.7158 14.1537 29.7794Z" fill="white"/>
<path d="M14.4669 28.5031C14.1949 28.6969 13.9177 28.9525 13.8177 29.2813C13.8019 29.3329 13.8719 29.3747 13.9091 29.3345C14.1297 29.0955 14.2987 28.8163 14.5293 28.5841C14.5693 28.5439 14.5161 28.4681 14.4669 28.5031Z" fill="white"/>
<path d="M15.0336 29.2767C14.8958 29.5017 14.7572 29.7417 14.7288 30.0081C14.7232 30.0591 14.7954 30.0697 14.819 30.0325C14.9548 29.8183 15.0372 29.5727 15.1604 29.3509C15.2064 29.2681 15.083 29.1959 15.0336 29.2767Z" fill="white"/>
<path d="M15.8706 28.6515C15.7672 28.8571 15.6602 29.0659 15.6268 29.2957C15.6162 29.3693 15.7122 29.4243 15.7554 29.3499C15.8668 29.1573 15.9336 28.9441 16.0244 28.7415C16.0704 28.6389 15.9228 28.5475 15.8706 28.6515Z" fill="white"/>
<path d="M16.2001 29.532C16.1777 29.7184 16.1169 29.9382 16.1637 30.1228C16.1755 30.1692 16.2467 30.1814 16.2695 30.1364C16.3583 29.9606 16.3465 29.7248 16.3659 29.532C16.3763 29.4252 16.2127 29.428 16.2001 29.532Z" fill="white"/>
<path d="M17.0729 28.8377C17.0613 29.0091 17.0391 29.1845 17.0679 29.3547C17.0805 29.4293 17.2059 29.4293 17.2185 29.3547C17.2475 29.1845 17.2249 29.0091 17.2135 28.8377C17.2075 28.7473 17.0789 28.7471 17.0729 28.8377Z" fill="white"/>
<path d="M10.9464 32.6529C10.7896 32.8723 10.6126 33.1645 10.6324 33.4449C10.6366 33.5051 10.719 33.5361 10.7518 33.4773C10.8834 33.2403 10.934 32.9629 11.0624 32.7207C11.1036 32.6431 10.9962 32.5833 10.9464 32.6529Z" fill="white"/>
<path d="M24.2863 28.6159C24.6059 28.8079 24.8843 29.0449 25.1785 29.2713C25.2275 29.3089 25.2941 29.2365 25.2619 29.1879C25.0489 28.8657 24.7139 28.6351 24.3637 28.4837C24.2755 28.4457 24.1995 28.5637 24.2863 28.6159Z" fill="white"/>
<path d="M23.9662 29.8613C24.1618 30.0669 24.366 30.2689 24.5726 30.4637C24.6346 30.5223 24.7314 30.4483 24.6904 30.3727C24.5482 30.1107 24.324 29.8813 24.0646 29.7337C23.984 29.6877 23.9024 29.7943 23.9662 29.8613Z" fill="white"/>
<path d="M25.2799 30.041C25.5433 30.3258 25.7827 30.621 26.0283 30.9208C26.0903 30.9964 26.1933 30.9 26.1559 30.8224C25.9871 30.4702 25.6759 30.157 25.3385 29.965C25.2901 29.9372 25.2427 30.0008 25.2799 30.041Z" fill="white"/>
<path d="M26.6156 30.7858C26.8786 31.1298 27.1148 31.4844 27.3576 31.842C27.4108 31.92 27.5578 31.874 27.5204 31.7734C27.3656 31.3566 27.073 30.9758 26.7236 30.7024C26.6688 30.6596 26.5636 30.7178 26.6156 30.7858Z" fill="white"/>
<path d="M26.5153 31.9816C26.6947 32.3194 26.7783 32.6768 26.9209 33.0272C26.9493 33.0968 27.0519 33.0906 27.0561 33.0088C27.0765 32.6064 26.8611 32.2086 26.6209 31.9002C26.5723 31.8378 26.4811 31.9172 26.5153 31.9816Z" fill="white"/>
<path d="M25.0502 31.6138C25.2102 31.8514 25.3252 32.1136 25.4762 32.3558C25.5186 32.424 25.6166 32.3784 25.6018 32.3028C25.5444 32.0068 25.3636 31.7458 25.173 31.519C25.1162 31.4516 25.0006 31.5402 25.0502 31.6138Z" fill="white"/>
<path d="M23.3372 31.0428C23.559 31.3398 23.722 31.6684 23.9078 31.9876C23.9464 32.054 24.0488 32.0094 24.0304 31.9358C23.9366 31.5586 23.715 31.2354 23.4648 30.9444C23.4054 30.8754 23.2818 30.9684 23.3372 31.0428Z" fill="white"/>
<path d="M22.4053 29.1993C22.6851 29.4627 22.9281 29.7629 23.2097 30.0235C23.2537 30.0641 23.3229 30.0127 23.2931 29.9591C23.1033 29.6175 22.8063 29.3433 22.5091 29.0953C22.4377 29.0359 22.3353 29.1335 22.4053 29.1993Z" fill="white"/>
<path d="M22.781 28.1736C23.0092 28.3686 23.2154 28.5866 23.4394 28.7862C23.4748 28.8176 23.5362 28.777 23.5082 28.733C23.3408 28.4712 23.1204 28.2688 22.8782 28.0764C22.8102 28.0224 22.7128 28.1152 22.781 28.1736Z" fill="white"/>
<path d="M21.5781 29.8666C21.6929 30.0266 21.8001 30.1914 21.8971 30.3626C21.9845 30.517 22.0543 30.6962 22.1765 30.826C22.2249 30.8774 22.2917 30.8214 22.2835 30.7636C22.2569 30.5776 22.1329 30.4002 22.0323 30.2456C21.9269 30.084 21.8121 29.9296 21.6909 29.7794C21.6403 29.7166 21.5305 29.8002 21.5781 29.8666Z" fill="white"/>
<path d="M21.3159 28.5841C21.5467 28.8163 21.7155 29.0957 21.9363 29.3345C21.9733 29.3747 22.0433 29.3329 22.0277 29.2813C21.9277 28.9525 21.6505 28.6969 21.3783 28.5031C21.3297 28.4685 21.2755 28.5435 21.3159 28.5841Z" fill="white"/>
<path d="M20.6839 29.3508C20.8073 29.5728 20.8895 29.8184 21.0255 30.0326C21.0489 30.0698 21.1211 30.059 21.1157 30.0082C21.0873 29.7418 20.9485 29.5016 20.8107 29.2766C20.7615 29.196 20.6379 29.2678 20.6839 29.3508Z" fill="white"/>
<path d="M19.8203 28.7415C19.9111 28.9441 19.9779 29.1573 20.0893 29.3499C20.1323 29.4239 20.2287 29.3701 20.2179 29.2957C20.1845 29.0659 20.0775 28.8573 19.9741 28.6515C19.9219 28.5477 19.7743 28.6387 19.8203 28.7415Z" fill="white"/>
<path d="M19.479 29.532C19.4982 29.7248 19.4864 29.9606 19.5752 30.1364C19.598 30.1812 19.6692 30.1694 19.681 30.1228C19.728 29.9376 19.667 29.7184 19.6446 29.532C19.632 29.4282 19.4682 29.425 19.479 29.532Z" fill="white"/>
<path d="M18.6314 28.8377C18.62 29.0091 18.5976 29.1845 18.6264 29.3547C18.639 29.4293 18.7644 29.4293 18.7772 29.3547C18.806 29.1845 18.7836 29.0091 18.772 28.8377C18.766 28.7473 18.6374 28.7471 18.6314 28.8377Z" fill="white"/>
<path d="M24.7817 32.7209C24.9101 32.9629 24.9609 33.2403 25.0923 33.4773C25.1251 33.5361 25.2075 33.5053 25.2117 33.4451C25.2315 33.1645 25.0545 32.8725 24.8977 32.6531C24.8481 32.5835 24.7405 32.6431 24.7817 32.7209Z" fill="white"/>
<path d="M17.8363 29.3366C17.8061 29.5454 17.7367 29.8498 17.8531 30.0406C17.8751 30.0768 17.9379 30.0834 17.9583 30.0406C18.0499 29.848 17.9817 29.5592 17.9653 29.354C17.9597 29.2862 17.8477 29.2582 17.8363 29.3366Z" fill="white"/>
<path d="M24.708 8.5754C21.017 5.9772 14.8342 5.9772 11.1432 8.5754C5.64104 12.4488 5.10244 19.9724 6.74104 23.2494C9.19704 28.1616 17.9256 28.3042 17.9256 28.3042C17.9256 28.3042 26.654 28.1616 29.1102 23.2494C30.7488 19.9724 30.2102 12.4488 24.708 8.5754Z" fill="#F0F0FF"/>
<mask id="mask1_1127_53003" style="mask-type:luminance" maskUnits="userSpaceOnUse" x="5" y="18" width="25" height="11">
<path d="M5.92871 18.2425H29.9228V28.3037H5.92871V18.2425Z" fill="white"/>
</mask>
<g mask="url(#mask1_1127_53003)">
<g opacity="0.800003">
<path d="M29.1105 21.4387C26.6543 26.3511 17.9257 26.4935 17.9257 26.4935C17.9257 26.4935 9.19729 26.3511 6.74109 21.4387C6.32429 20.6051 6.04929 19.4959 5.96029 18.2425C5.82489 20.2273 6.13229 22.0315 6.74109 23.2489C9.19729 28.1613 17.9257 28.3037 17.9257 28.3037C17.9257 28.3037 26.6543 28.1613 29.1105 23.2489C29.7191 22.0313 30.0265 20.2273 29.8913 18.2425C29.8021 19.4957 29.5273 20.6051 29.1105 21.4387Z" fill="#F0F0FF"/>
</g>
</g>
<path d="M13.5147 8.02584C13.1489 8.12184 12.8015 8.35424 12.6023 8.67944C12.5513 8.76264 12.6689 8.85364 12.7373 8.78364C12.9887 8.52564 13.2415 8.30664 13.5605 8.13424C13.6203 8.10204 13.5791 8.00904 13.5147 8.02584Z" fill="white"/>
<path d="M13.4077 8.59513C13.0605 8.90053 12.7493 9.26473 12.5911 9.70473C12.5637 9.78113 12.6799 9.82573 12.7197 9.75873C12.9497 9.37313 13.1657 8.99193 13.4719 8.65913C13.5117 8.61593 13.4515 8.55673 13.4077 8.59513Z" fill="white"/>
<path d="M14.2201 8.17884C13.9191 8.52044 13.6557 8.91104 13.5339 9.35364C13.5117 9.43464 13.6363 9.49324 13.6739 9.41264C13.8603 9.01284 14.0473 8.63124 14.3307 8.28924C14.3939 8.21284 14.2873 8.10264 14.2201 8.17884Z" fill="white"/>
<path d="M6.89853 16.6615C6.71293 17.2725 6.59433 17.9217 6.67733 18.5605C6.68753 18.6389 6.79573 18.6423 6.80233 18.5605C6.85233 17.9319 6.88073 17.3125 7.01593 16.6939C7.03273 16.6175 6.92153 16.5861 6.89853 16.6615Z" fill="white"/>
<path d="M7.04595 18.0261C6.98615 18.5031 6.98195 19.0005 7.14215 19.4589C7.16655 19.5283 7.29015 19.5239 7.28015 19.4401C7.22455 18.9671 7.14695 18.5049 7.15835 18.0261C7.16015 17.9517 7.05455 17.9565 7.04595 18.0261Z" fill="white"/>
<path d="M7.47729 17.3544C7.42909 17.718 7.40309 18.112 7.52909 18.4628C7.55429 18.5326 7.66529 18.526 7.66429 18.4444C7.65889 18.0778 7.60369 17.7226 7.63349 17.3544C7.64189 17.2524 7.49009 17.2574 7.47729 17.3544Z" fill="white"/>
<path d="M26.9214 12.4136C27.2908 12.8556 27.466 13.3582 27.709 13.869C27.7428 13.94 27.868 13.9074 27.8604 13.828C27.804 13.246 27.417 12.7216 27.0098 12.3252C26.9512 12.2682 26.8706 12.3528 26.9214 12.4136Z" fill="white"/>
<path d="M27.0133 13.3917C27.1431 13.6367 27.2521 13.8941 27.3315 14.1601C27.3967 14.3787 27.4327 14.6053 27.5227 14.8151C27.5533 14.8861 27.6437 14.8381 27.6509 14.7803C27.7139 14.2761 27.4029 13.7233 27.1185 13.3301C27.0733 13.2675 26.9759 13.3211 27.0133 13.3917Z" fill="white"/>
<path d="M26.2424 13.1067C26.4414 13.4281 26.5894 13.7929 26.818 14.0931C26.86 14.1481 26.9534 14.1191 26.935 14.0437C26.8444 13.6719 26.6028 13.3341 26.3936 13.0185C26.3318 12.9253 26.1826 13.0101 26.2424 13.1067Z" fill="white"/>
<path d="M16.302 10.4505C16.0138 10.8181 15.8478 11.2407 15.7782 11.7011C15.7668 11.7767 15.8732 11.8109 15.8958 11.7335C16.0196 11.3095 16.1864 10.9027 16.3658 10.4997C16.3828 10.4617 16.333 10.4109 16.302 10.4505Z" fill="white"/>
<path d="M16.3702 11.2842C16.1262 11.7258 15.9298 12.2262 15.9388 12.738C15.9402 12.81 16.0506 12.8294 16.0678 12.7552C16.1806 12.2704 16.2664 11.8032 16.4754 11.3458C16.5074 11.2758 16.4088 11.2142 16.3702 11.2842Z" fill="white"/>
<path d="M17.0527 10.8734C16.8633 11.297 16.6851 11.802 16.7351 12.2732C16.7407 12.3264 16.8235 12.3486 16.8363 12.287C16.9343 11.8172 16.9713 11.3668 17.1469 10.9132C17.1679 10.8592 17.0767 10.82 17.0527 10.8734Z" fill="white"/>
<path d="M21.5815 8.00595C22.1011 8.34475 22.5549 8.71355 22.9755 9.16935C23.0341 9.23295 23.1275 9.15215 23.0907 9.08055C22.7991 8.51175 22.1719 8.20835 21.6305 7.92235C21.5751 7.89315 21.5293 7.97195 21.5815 8.00595Z" fill="white"/>
<path d="M22.0256 8.84124C22.3746 9.21624 22.6412 9.66144 22.9936 10.0294C23.0402 10.078 23.1424 10.028 23.1138 9.95944C22.9134 9.48184 22.505 9.08384 22.134 8.73284C22.0622 8.66524 21.9584 8.76904 22.0256 8.84124Z" fill="white"/>
<path d="M21.3552 8.76467C21.6176 9.12927 21.86 9.50847 22.1592 9.84467C22.2182 9.91107 22.3204 9.82627 22.2794 9.75187C22.0608 9.35667 21.7652 9.01567 21.473 8.67367C21.4182 8.60987 21.3052 8.69527 21.3552 8.76467Z" fill="white"/>
<path d="M24.7835 8.44554C19.5385 4.87255 11.7383 6.19154 8.13274 11.4145C5.57054 15.1255 4.32774 21.7851 8.04994 25.2023C10.5549 27.5021 14.6463 28.4825 17.9957 28.4519C21.6745 28.4181 26.4881 27.2845 28.7397 24.1473C30.2397 22.0573 30.2851 19.1245 29.8495 16.6887C29.2591 13.3877 27.5125 10.4175 24.7835 8.44554C24.6267 8.33234 24.4769 8.59235 24.6321 8.70455C28.7137 11.6539 31.1293 17.9075 29.1637 22.7649C27.5629 26.7215 22.2905 27.8845 18.4737 28.1277C15.8145 28.2973 12.8161 27.6085 10.4505 26.4445C8.32014 25.3959 6.76194 23.7443 6.28494 21.3803C5.79534 18.9523 6.15174 16.3215 7.06814 14.0371C8.35314 10.8333 10.9209 8.24134 14.2727 7.27835C17.6813 6.29894 21.6673 6.68495 24.6321 8.70455C24.7919 8.81355 24.9423 8.55374 24.7835 8.44554Z" fill="#4C4C8A"/>
<path d="M20.5993 19.2731C19.8917 18.3429 18.9783 18.1085 17.9255 18.0771C16.8729 18.1085 15.9593 18.3429 15.2517 19.2731C14.6363 20.0821 13.9977 23.1603 14.6443 24.6599C15.2909 26.1597 17.9255 26.0933 17.9255 26.0933C17.9255 26.0933 20.5601 26.1597 21.2069 24.6599C21.8535 23.1603 21.2147 20.0821 20.5993 19.2731Z" fill="#DCDCFD"/>
<mask id="mask2_1127_53003" style="mask-type:luminance" maskUnits="userSpaceOnUse" x="14" y="22" width="8" height="5">
<path d="M14.375 22.3913H21.4774V26.0938H14.375V22.3913Z" fill="white"/>
</mask>
<g mask="url(#mask2_1127_53003)">
<g opacity="0.800003">
<path d="M21.2074 23.4731C20.5608 24.9729 17.926 24.9065 17.926 24.9065C17.926 24.9065 15.2914 24.9729 14.6448 23.4731C14.513 23.1675 14.4354 22.7957 14.3992 22.3915C14.3356 23.2357 14.3904 24.0699 14.6448 24.6599C15.2914 26.1597 17.926 26.0933 17.926 26.0933C17.926 26.0933 20.5608 26.1597 21.2074 24.6599C21.4616 24.0699 21.5166 23.2357 21.453 22.3915C21.4168 22.7957 21.3392 23.1675 21.2074 23.4731Z" fill="#F0F0FF"/>
</g>
</g>
<path d="M20.7052 19.167C19.435 17.6482 16.7404 17.4322 15.3434 18.9302C14.2088 20.1468 13.9596 22.7592 14.3638 24.2942C14.9954 26.6928 19.7014 26.9182 21.102 25.1228C22.1946 23.7218 21.6668 20.5706 20.7286 19.1974C20.6204 19.0388 20.3604 19.1888 20.4696 19.3488C21.3996 20.7102 22.0016 24.1934 20.4748 25.3032C19.5974 25.9408 18.3016 26.023 17.2436 25.9072C16.237 25.7968 15.1036 25.4626 14.7144 24.4246C14.34 23.4256 14.5178 22.1146 14.7362 21.1026C14.986 19.946 15.4118 18.8724 16.6222 18.4366C17.983 17.9468 19.5612 18.2648 20.493 19.3792C20.6172 19.5274 20.8284 19.3142 20.7052 19.167Z" fill="#4C4C8A"/>
<path d="M19.9934 19.4724C19.4078 18.683 16.4446 18.683 15.8588 19.4724C15.2732 20.2618 17.9262 21.917 17.9262 21.917C17.9262 21.917 20.5792 20.2618 19.9934 19.4724Z" fill="#4C4C8A"/>
<mask id="mask3_1127_53003" style="mask-type:luminance" maskUnits="userSpaceOnUse" x="16" y="19" width="4" height="1">
<path d="M16.2461 19.2258H19.5519V19.6812H16.2461V19.2258Z" fill="white"/>
</mask>
<g mask="url(#mask3_1127_53003)">
<g opacity="0.5">
<path d="M16.2777 19.68C17.3871 19.3388 18.3679 19.6292 19.4773 19.574C19.5633 19.5698 19.5813 19.4504 19.4975 19.4236C18.4893 19.103 17.2089 19.1708 16.2585 19.6342C16.2329 19.6468 16.2509 19.6884 16.2777 19.68Z" fill="white"/>
</g>
</g>
<path d="M17.7725 21.3411V23.2051C17.7725 23.3983 18.0725 23.3985 18.0725 23.2051V21.3411C18.0725 21.1481 17.7725 21.1477 17.7725 21.3411Z" fill="#4C4C8A"/>
<path d="M15.8308 23.0722C15.9914 23.325 16.2358 23.5452 16.5086 23.6682C17.0664 23.92 17.6014 23.6682 18.028 23.289C18.1726 23.1604 17.96 22.949 17.816 23.0768C17.2472 23.5824 16.518 23.5944 16.0898 22.9208C15.9864 22.7584 15.7268 22.9086 15.8308 23.0722Z" fill="#4C4C8A"/>
<path d="M19.7619 22.9207C19.3339 23.5939 18.6047 23.5825 18.0357 23.0767C17.8919 22.9489 17.6789 23.1603 17.8237 23.2889C18.2503 23.6681 18.7849 23.9201 19.3431 23.6681C19.6161 23.5451 19.8603 23.3249 20.0209 23.0721C20.1249 22.9087 19.8653 22.7581 19.7619 22.9207Z" fill="#4C4C8A"/>
<path d="M9.80356 21.8205C7.54856 21.3035 8.26976 19.7615 9.80356 20.1283C11.9268 20.6359 11.6488 22.2435 9.80356 21.8205Z" fill="#FFB7C5"/>
<path d="M26.0476 21.8205C28.3026 21.3035 27.5814 19.7615 26.0476 20.1283C23.9244 20.6359 24.2024 22.2435 26.0476 21.8205Z" fill="#FFB7C5"/>
<path d="M11.0865 16.7727C11.4825 16.6031 12.0241 16.4835 12.6513 16.7089C13.1001 16.8703 13.3489 16.5107 13.0199 16.2535C12.6413 15.9571 11.6915 15.7849 11.0275 16.1111C10.3635 16.4371 10.4091 16.6597 10.4621 16.7863C10.5153 16.9129 10.7143 16.9321 11.0865 16.7727Z" fill="#4C4C8A"/>
<path d="M24.7647 16.7727C24.3689 16.6031 23.8273 16.4835 23.1999 16.7089C22.7511 16.8703 22.5025 16.5107 22.8313 16.2535C23.2101 15.9571 24.1599 15.7849 24.8237 16.1111C25.4877 16.4371 25.4421 16.6597 25.3891 16.7863C25.3359 16.9129 25.1369 16.9321 24.7647 16.7727Z" fill="#4C4C8A"/>
<path d="M21.5132 19.0584C21.7472 18.657 22.036 18.3116 22.3932 18.0118C22.748 17.7166 23.1852 17.4826 23.6746 17.4036C24.1626 17.3218 24.6766 17.4124 25.1166 17.6082C25.562 17.8012 25.9524 18.0788 26.2984 18.3872L26.301 18.3894C26.4662 18.5366 26.4808 18.7898 26.3336 18.955C26.1864 19.1202 25.9334 19.1348 25.768 18.9876C25.7588 18.9792 25.7494 18.97 25.741 18.961C25.4658 18.6646 25.1596 18.4048 24.8226 18.2194C24.4874 18.0314 24.1162 17.931 23.7406 17.9562C23.3648 17.9802 22.9898 18.1296 22.6558 18.3584C22.3234 18.5854 22.0168 18.8902 21.782 19.219L21.7756 19.228C21.7254 19.2982 21.6276 19.3146 21.5574 19.2644C21.4914 19.217 21.4734 19.1274 21.5132 19.0584Z" fill="#4C4C8A"/>
<path d="M14.1667 19.2189C13.9319 18.8901 13.6253 18.5853 13.2929 18.3583C12.9589 18.1297 12.5839 17.9803 12.2083 17.9561C11.8325 17.9311 11.4615 18.0313 11.1261 18.2193C10.7891 18.4047 10.4829 18.6645 10.2077 18.9609C10.0573 19.1231 9.80395 19.1325 9.64175 18.9819C9.47955 18.8315 9.47015 18.5781 9.62075 18.4159C9.62935 18.4067 9.63815 18.3981 9.64735 18.3897L9.65035 18.3871C9.99635 18.0787 10.3867 17.8011 10.8321 17.6081C11.2721 17.4123 11.7861 17.3219 12.2743 17.4035C12.7635 17.4825 13.2007 17.7165 13.5555 18.0117C13.9127 18.3115 14.2015 18.6569 14.4355 19.0583C14.4791 19.1329 14.4539 19.2287 14.3791 19.2723C14.3089 19.3131 14.2201 19.2931 14.1737 19.2285L14.1667 19.2189Z" fill="#4C4C8A"/>
<path d="M8.37032 12.0283C8.37032 12.0283 6.50312 11.2569 6.60352 8.60152C6.71752 5.58312 10.3929 5.49232 11.2937 9.09232L8.37032 12.0283Z" fill="#F0F0FF"/>
<path d="M8.94643 10.8047C8.94643 10.8047 7.57063 10.1215 7.62563 8.66129C7.68843 7.00129 9.92903 7.56609 10.4406 9.30409" fill="#DCDCFD"/>
<path d="M9.02205 10.6753C8.23045 10.2715 7.53644 9.2617 7.82405 8.3493C7.99585 7.8041 8.54885 7.7355 9.02585 7.9149C9.65565 8.1519 10.0928 8.7207 10.2958 9.3441C10.3554 9.5269 10.6452 9.4487 10.585 9.2643C10.3594 8.5715 9.89044 7.9573 9.20625 7.6667C8.71704 7.4589 8.08925 7.4367 7.72804 7.8883C6.92384 8.8941 7.91464 10.4467 8.87065 10.9343C9.04225 11.0219 9.19425 10.7631 9.02205 10.6753Z" fill="#4C4C8A"/>
<path d="M7.01676 7.94565C6.87856 8.25525 6.81276 8.59824 6.86836 8.93524C6.87896 8.99904 6.97216 8.97884 6.97576 8.92064C6.99596 8.60124 7.02716 8.29585 7.11376 7.98665C7.12956 7.93045 7.04176 7.88925 7.01676 7.94565Z" fill="white"/>
<path d="M7.21989 8.43896C7.11109 8.79316 7.08989 9.22036 7.21129 9.57336C7.23109 9.63136 7.32249 9.62456 7.32169 9.55836C7.31769 9.18836 7.28669 8.81896 7.28429 8.44756C7.28409 8.41016 7.23069 8.40356 7.21989 8.43896Z" fill="white"/>
<path d="M6.97656 9.5215C6.98076 9.8873 7.07696 10.2843 7.30056 10.5805C7.35416 10.6517 7.46256 10.5925 7.42196 10.5095C7.25996 10.1801 7.11456 9.8743 7.03176 9.5139C7.02476 9.4829 6.97636 9.4899 6.97656 9.5215Z" fill="white"/>
<path d="M7.41614 9.97994C7.54994 10.2979 7.74334 10.6063 8.02314 10.8155C8.07654 10.8553 8.12554 10.7737 8.08954 10.7295C7.87994 10.4737 7.66374 10.2325 7.49034 9.94874C7.46754 9.91114 7.39774 9.93594 7.41614 9.97994Z" fill="white"/>
<path d="M8.44607 11.8991C6.93227 11.2449 6.31847 8.97091 6.99367 7.55271C7.39047 6.71891 8.25427 6.33291 9.14107 6.60591C10.2631 6.95091 10.8589 8.07731 11.1493 9.13251C11.2003 9.31851 11.4899 9.23951 11.4385 9.05291C11.1259 7.91571 10.4795 6.74431 9.29627 6.34011C8.46227 6.05511 7.53887 6.27771 6.98747 6.98131C5.81107 8.48191 6.52467 11.3931 8.29467 12.1581C8.47007 12.2339 8.62307 11.9755 8.44607 11.8991Z" fill="#4C4C8A"/>
<path d="M27.481 12.0283C27.481 12.0283 29.3482 11.2569 29.2478 8.60152C29.1338 5.58312 25.4586 5.49232 24.5576 9.09232L27.481 12.0283Z" fill="#F0F0FF"/>
<path d="M26.9053 10.8047C26.9053 10.8047 28.2811 10.1215 28.2259 8.66129C28.1631 7.00129 25.9225 7.56609 25.4111 9.30409" fill="#DCDCFD"/>
<path d="M26.9803 10.9343C27.9377 10.4459 28.9251 8.8951 28.1227 7.8883C27.7757 7.4525 27.1739 7.4569 26.6949 7.6461C25.9857 7.9263 25.4971 8.5543 25.2659 9.2643C25.2059 9.4483 25.4955 9.5271 25.5551 9.3441C25.7507 8.7437 26.1531 8.2099 26.7425 7.9517C27.2299 7.7383 27.8421 7.7609 28.0269 8.3491C28.3137 9.2621 27.6213 10.2711 26.8289 10.6753C26.6569 10.7631 26.8085 11.0219 26.9803 10.9343Z" fill="#4C4C8A"/>
<path d="M28.7373 7.98658C28.8239 8.29598 28.8551 8.60138 28.8753 8.92058C28.8789 8.97818 28.9721 8.99958 28.9827 8.93518C29.0383 8.59818 28.9727 8.25518 28.8343 7.94558C28.8095 7.88998 28.7213 7.92978 28.7373 7.98658Z" fill="white"/>
<path d="M28.5677 8.44763C28.5653 8.81883 28.5343 9.18843 28.5303 9.55843C28.5297 9.62403 28.6209 9.63183 28.6409 9.57323C28.7621 9.22043 28.7409 8.79303 28.6321 8.43903C28.6215 8.40383 28.5679 8.41003 28.5677 8.44763Z" fill="white"/>
<path d="M28.8198 9.51395C28.7372 9.87415 28.5916 10.1801 28.4298 10.5095C28.3892 10.5923 28.4974 10.6517 28.5512 10.5805C28.7746 10.2845 28.871 9.88715 28.875 9.52155C28.8754 9.49015 28.827 9.48255 28.8198 9.51395Z" fill="white"/>
<path d="M28.3615 9.94863C28.1881 10.2324 27.9721 10.4736 27.7623 10.7294C27.7267 10.7732 27.7747 10.8556 27.8287 10.8154C28.1085 10.6064 28.3019 10.298 28.4357 9.97983C28.4541 9.93643 28.3847 9.91083 28.3615 9.94863Z" fill="white"/>
<path d="M27.5571 12.1576C29.3239 11.394 30.0453 8.47862 28.8645 6.98082C28.3101 6.27782 27.3919 6.05582 26.5555 6.33962C25.3721 6.74082 24.7253 7.91762 24.4133 9.05242C24.3621 9.23882 24.6513 9.31822 24.7027 9.13222C24.9865 8.09962 25.5563 7.00502 26.6353 6.62882C27.5379 6.31402 28.4473 6.68922 28.8581 7.55222C29.5337 8.97122 28.9201 11.2442 27.4057 11.8986C27.2289 11.975 27.3815 12.2334 27.5571 12.1576Z" fill="#4C4C8A"/>
</g>
<defs>
<clipPath id="clip0_1127_53003">
<rect width="36" height="36" fill="white"/>
</clipPath>
</defs>
</svg>
